<svg width="111" height="110" viewBox="0 0 111 110" fill="none" xmlns="http://www.w3.org/2000/svg">
<rect x="0.652344" y="0.5" width="109" height="109" rx="54.5" fill="#F21515" stroke="#D0CACA"/>
<path d="M52.3571 42.8571H57.2143C57.2143 42.213 56.9584 41.5953 56.503 41.1399C56.0475 40.6844 55.4298 40.4286 54.7857 40.4286C54.1416 40.4286 53.5239 40.6844 53.0685 41.1399C52.613 41.5953 52.3571 42.213 52.3571 42.8571ZM49.9286 42.8571C49.9286 41.5689 50.4403 40.3335 51.3512 39.4226C52.2621 38.5117 53.4975 38 54.7857 38C56.0739 38 57.3093 38.5117 58.2202 39.4226C59.1311 40.3335 59.6429 41.5689 59.6429 42.8571H69.3571C69.6792 42.8571 69.9881 42.9851 70.2158 43.2128C70.4435 43.4405 70.5714 43.7494 70.5714 44.0714C70.5714 44.3935 70.4435 44.7023 70.2158 44.9301C69.9881 45.1578 69.6792 45.2857 69.3571 45.2857H67.9874L65.061 66.7494C64.8625 68.204 64.1438 69.5374 63.0378 70.5027C61.9318 71.468 60.5135 72 59.0454 72H50.526C49.058 72 47.6397 71.468 46.5337 70.5027C45.4277 69.5374 44.7089 68.204 44.5104 66.7494L41.584 45.2857H40.2143C39.8922 45.2857 39.5834 45.1578 39.3557 44.9301C39.1279 44.7023 39 44.3935 39 44.0714C39 43.7494 39.1279 43.4405 39.3557 43.2128C39.5834 42.9851 39.8922 42.8571 40.2143 42.8571H49.9286ZM52.3571 51.3571C52.3571 51.0351 52.2292 50.7262 52.0015 50.4985C51.7738 50.2708 51.4649 50.1429 51.1429 50.1429C50.8208 50.1429 50.512 50.2708 50.2842 50.4985C50.0565 50.7262 49.9286 51.0351 49.9286 51.3571V63.5C49.9286 63.822 50.0565 64.1309 50.2842 64.3586C50.512 64.5864 50.8208 64.7143 51.1429 64.7143C51.4649 64.7143 51.7738 64.5864 52.0015 64.3586C52.2292 64.1309 52.3571 63.822 52.3571 63.5V51.3571ZM58.4286 50.1429C58.7506 50.1429 59.0595 50.2708 59.2872 50.4985C59.5149 50.7262 59.6429 51.0351 59.6429 51.3571V63.5C59.6429 63.822 59.5149 64.1309 59.2872 64.3586C59.0595 64.5864 58.7506 64.7143 58.4286 64.7143C58.1065 64.7143 57.7977 64.5864 57.5699 64.3586C57.3422 64.1309 57.2143 63.822 57.2143 63.5V51.3571C57.2143 51.0351 57.3422 50.7262 57.5699 50.4985C57.7977 50.2708 58.1065 50.1429 58.4286 50.1429ZM46.9171 66.4216C47.0363 67.2941 47.4676 68.094 48.131 68.6731C48.7945 69.2522 49.6453 69.5713 50.526 69.5714H59.0454C59.9265 69.5719 60.7779 69.253 61.4419 68.6739C62.1059 68.0947 62.5375 67.2945 62.6567 66.4216L65.537 45.2857H44.0344L46.9171 66.4216Z" fill="white"/>
</svg>
