<svg width="430" height="262" viewBox="0 0 430 262" fill="none" xmlns="http://www.w3.org/2000/svg">
<path d="M-25.358 114.934C-31.7749 108.539 -21.658 93.1908 -6.73496 78.7197C-0.711948 72.8792 6.09438 67.184 12.9123 62.2756C13.1468 62.1563 13.3455 62.0154 13.4948 61.8577C13.5971 61.7849 13.699 61.7104 13.8013 61.6379C13.8013 61.5648 13.7883 61.4888 13.7663 61.4117C13.7981 61.304 13.8091 61.1925 13.7958 61.0781L9.71691 39.7092L41.396 39.4056C41.865 39.4056 42.3029 39.1722 42.5646 38.7835C42.8263 38.3941 42.8774 37.9005 42.7006 37.4661L36.9694 23.3844C36.7533 22.8538 36.2377 22.5067 35.6647 22.5067H6.78757C6.09351 20.8199 4.34348 17.1818 0.867962 13.2597C-3.41368 8.42784 -11.2508 2.22518 -24.2722 0.115265C-27.166 -0.00171218 -27.0326 2.60846 -24.7228 2.89613C-14.9817 4.4746 -7.11189 8.55521 -1.33207 15.025C2.98857 19.8618 4.4593 24.3026 4.47288 24.3445C4.65946 24.9279 5.20189 25.3242 5.81451 25.3242H34.7173L39.3019 36.589H7.6483C5.63428 36.643 5.03841 38.0091 5.08751 39.7539L7.27714 59.3261C-12.8016 70.5538 -35.3126 85.3562 -45.5898 94.4405C-59.4967 106.733 -59.3396 128.268 -42.4115 144.097C-3.84085 180.164 58.632 204.43 123.985 220.605C255.088 253.052 342.128 258.898 350.822 259.689C380.467 262.123 418.962 257.624 415.422 224.144C411.883 190.665 467.956 192.917 473.999 191.42C407.474 188.76 30.408 170.507 -25.358 114.934Z" fill="#FCAA91"/>
<path d="M474 191.42C455.072 190.961 418.305 192.54 414.11 217.693C413.66 220.65 414.003 223.63 414.215 226.58C414.616 233.243 412.896 240.109 408.462 245.188C394.69 259.55 372.348 259.251 353.794 258.586C297.982 254.285 242.57 245.262 187.756 234.009C126.773 221.071 64.8103 207.464 9.06402 178.619C-10.9202 167.962 -30.7457 155.717 -46.3377 139.107C-57.4395 126.553 -58.821 106.04 -45.589 94.4402C-53.3332 100.852 -57.2073 111.314 -55.6667 121.239C-52.2847 143.702 -26.17 158.235 -8.82506 170.076C30.7567 194.139 75.1953 208.982 119.826 220.529C196.637 239.619 274.658 254.757 353.622 261.217C374.974 262.23 406.969 261.751 415.601 237.923C418.031 231.45 416.299 224.696 416.869 218.073C420.3 195.591 457.474 193.378 474 193.209V191.42Z" fill="url(#paint0_linear_1907_5758)"/>
<path d="M11.4297 160.399C27.8371 167.686 46.9433 174.259 67.7048 180.191C68.8246 178.485 70.7812 175.258 71.3649 174.501C51.2336 169.463 32.6848 163.818 16.6746 157.499C14.9295 158.471 13.1812 159.438 11.4297 160.399Z" fill="white"/>
<path d="M-25.9531 138.611C-19.8516 143.585 -12.5427 148.301 -4.22287 152.774C-2.71603 151.97 -1.21208 151.161 0.289848 150.348C-8.66856 145.997 -16.4468 141.36 -22.8025 136.421C-23.8527 137.151 -24.9035 137.88 -25.9531 138.611Z" fill="white"/>
<path d="M101.61 181.399C99.2949 183.375 96.979 185.351 94.6641 187.327C120.272 193.629 147.525 199.102 174.779 203.854C177.34 202.185 183.478 196.974 185.36 195.605C156.953 191.676 128.412 186.985 101.61 181.399Z" fill="white"/>
<path d="M367.207 213.681C340.57 211.829 280.74 206.706 244.602 202.832C240.095 206.147 235.586 209.459 231.074 212.767C265.066 217.663 323.403 223.922 350.05 226.948C355.726 222.472 361.459 218.063 367.207 213.681Z" fill="white"/>
<path opacity="0.6" d="M152.765 191.686L310.737 207.811C330.382 211.391 314.364 229.492 276.652 226.953C276.652 226.953 184.43 215.775 136.491 208.372C119.166 205.696 123.617 187.996 152.765 191.686Z" fill="#222222"/>
<path d="M184.273 118.984L133.012 114.455L133.885 61.0021L185.146 65.5315L184.273 118.984Z" fill="#E64816"/>
<path d="M131.986 59.0074L131.803 70.2378L186.588 75.0789L186.78 63.2997L131.986 59.0074Z" fill="#E64816"/>
<path d="M158.342 117.12L115.875 113.355L116.752 59.903L159.219 63.6682L158.342 117.12Z" fill="#FF5722"/>
<path d="M115.188 57.6915L115 69.1674L160.387 73.1918L160.575 61.2468L115.188 57.6915Z" fill="#FF5722"/>
<path d="M116.618 69.028L116.572 69.547L169.761 74.2619L169.807 73.7429L116.618 69.028Z" fill="#E64816"/>
<path d="M125.069 114.17L121.889 113.888L122.804 58.2719L125.984 58.5537L125.069 114.17Z" fill="white"/>
<path d="M151.686 116.556L148.506 116.274L149.419 60.4154L152.599 60.6972L151.686 116.556Z" fill="white"/>
<path d="M198.862 185.452C202.832 173.26 196.795 160.363 185.38 156.646C173.964 152.929 161.491 159.8 157.522 171.992C153.552 184.185 159.588 197.081 171.004 200.798C182.42 204.515 194.892 197.644 198.862 185.452Z" fill="#222222"/>
<path d="M205.488 180.45C204.25 193.785 193.551 203.942 179.542 203.065C165.532 202.188 155.179 190.667 156.417 177.331C157.654 163.996 170.014 153.896 184.023 154.773C198.032 155.65 206.725 167.115 205.488 180.45Z" fill="#222222"/>
<path d="M192.809 183.482C195.616 174.86 191.348 165.741 183.275 163.112C175.203 160.484 166.384 165.343 163.577 173.964C160.77 182.585 165.038 191.705 173.11 194.333C181.183 196.961 190.002 192.103 192.809 183.482Z" fill="#CCCCCC"/>
<path d="M184.4 180.857C185.709 176.837 183.719 172.586 179.955 171.36C176.192 170.135 172.08 172.4 170.772 176.42C169.463 180.439 171.453 184.69 175.216 185.916C178.98 187.141 183.091 184.876 184.4 180.857Z" fill="#737373"/>
<path d="M240.392 174.542C236.453 174.896 193.307 174.303 240.429 126.257C187.002 121.404 161.264 111.269 139.531 173.474L236.113 181.459C240.727 181.748 241.671 176.22 240.392 174.542Z" fill="#FF5722"/>
<path d="M248.174 126.717L195.473 122.41C189.788 121.94 190.814 109.819 196.499 110.289L249.2 114.596C255.999 115.158 254.973 127.278 248.174 126.717Z" fill="#222222"/>
<path d="M185.051 123.332L139.856 119.764C138.591 119.664 137.654 118.56 137.762 117.299C137.871 116.037 138.984 115.095 140.249 115.194L185.444 118.762C186.709 118.862 187.646 119.966 187.537 121.228C187.429 122.49 186.316 123.432 185.051 123.332Z" fill="#222222"/>
<path d="M145.208 117.089L143.254 118.596L159.77 140.016L161.724 138.509L145.208 117.089Z" fill="#222222"/>
<path d="M230.94 125.878C230.94 125.878 185.812 173.101 230.965 175.357C239.918 175.597 240.392 174.542 240.392 174.542C227.448 172.322 215.199 167.414 225.682 150.671C234.357 136.815 248.99 126.606 248.99 126.606L230.94 125.878Z" fill="#B81F20"/>
<path d="M205.791 178.881C206.503 177.385 207.128 175.847 207.651 174.272C213.415 156.923 204.623 143.736 188.79 140.436C153.1 132.997 142.759 172.115 142.465 173.645L205.791 178.881Z" fill="#B81F20"/>
<path d="M197.499 178.194C198.21 176.699 198.835 175.161 199.359 173.586C205.122 156.236 196.678 141.087 180.498 139.75C164.318 138.412 146.529 151.392 140.765 168.742C140.241 170.317 139.839 171.873 139.545 173.404L197.499 178.194Z" fill="#FFC727"/>
<path d="M184.675 155.904L163.714 154.623C163.304 154.598 162.999 154.247 163.036 153.843L163.043 153.772C163.08 153.368 163.445 153.057 163.854 153.082L184.816 154.363C185.226 154.388 185.53 154.739 185.494 155.143L185.487 155.214C185.45 155.619 185.085 155.929 184.675 155.904Z" fill="#222222"/>
<path d="M184.355 159.406L163.393 158.126C162.984 158.101 162.679 157.75 162.716 157.346L162.723 157.274C162.759 156.87 163.125 156.56 163.534 156.585L184.496 157.865C184.905 157.89 185.21 158.241 185.173 158.646L185.167 158.717C185.13 159.121 184.764 159.431 184.355 159.406Z" fill="#222222"/>
<path d="M184.037 162.909L163.075 161.628C162.665 161.603 162.361 161.252 162.398 160.848L162.404 160.777C162.441 160.373 162.806 160.062 163.216 160.087L184.178 161.368C184.587 161.393 184.892 161.744 184.855 162.148L184.848 162.219C184.811 162.624 184.446 162.934 184.037 162.909Z" fill="#222222"/>
<path d="M183.716 166.411L162.755 165.131C162.345 165.106 162.04 164.755 162.077 164.351L162.084 164.279C162.121 163.875 162.486 163.565 162.895 163.59L183.857 164.87C184.267 164.895 184.571 165.246 184.535 165.65L184.528 165.722C184.491 166.126 184.126 166.436 183.716 166.411Z" fill="#222222"/>
<path d="M260.66 56.7854C260.66 56.7854 254.343 79.1548 256.877 87.7791C262.067 96.4566 301.322 95.6272 301.322 95.6272L304.199 89.2674L278.29 81.4321L280.905 65.7287C283.518 51.5955 267.544 46.7418 260.66 56.7854Z" fill="#333333"/>
<path d="M234.594 174.105L250.587 175.458C254.807 169.845 283.471 131.317 284.221 122.376C284.85 114.883 281.932 107.575 263.228 99.7132C250.689 94.4421 236.228 97.0505 236.228 97.0505C236.228 97.0505 225.655 108.172 234.442 114.767C243.229 121.362 259.924 125.251 259.924 125.251L234.594 174.105Z" fill="#730602"/>
<path d="M234.527 174.226L266.902 176.738C266.902 176.738 276.729 172.763 269.907 164.257C264.57 159.255 253.827 161.768 249.811 167.281L238.69 166.581L234.527 174.226Z" fill="#222222"/>
<path d="M216.774 172.99L232.767 174.343C236.987 168.729 265.65 130.201 266.401 121.261C267.029 113.768 264.112 106.459 245.408 98.5978C232.869 93.3267 223.975 94.6593 219.598 95.6774C215.22 96.6956 207.835 107.056 216.622 113.652C225.409 120.246 242.104 124.136 242.104 124.136L216.774 172.99Z" fill="#D81515"/>
<path d="M216.709 173.111L249.084 175.622C249.084 175.622 258.91 171.648 252.088 163.141C246.752 158.14 236.008 160.652 231.993 166.166L220.871 165.466C215.428 168.111 216.526 170.6 216.709 173.111Z" fill="#222222"/>
<path d="M260.254 99.812C268.204 96.5269 273.481 79.4854 278.622 68.9587C287.815 50.1638 258.747 36.7429 243.203 53.3163C228.872 67.7701 213.765 81.6005 215.646 98.2606C229.18 104.839 254.194 102.906 260.254 99.812Z" fill="#BDBDBD"/>
<path d="M254.45 101.746L254.195 101.291C256.915 99.7703 257.948 96.4655 259.144 92.6393C260.259 89.0719 261.524 85.0289 264.476 81.8521C272.114 71.0277 274.32 63.2653 274.825 58.6587C275.371 53.6803 274.101 51.2237 274.088 51.1994L274.547 50.9534C274.602 51.0564 275.897 53.5369 275.349 58.6523C274.848 63.3312 272.627 71.2085 264.891 82.1669L264.869 82.1941C261.989 85.2863 260.741 89.2752 259.641 92.7947C258.412 96.7275 257.35 100.124 254.45 101.746Z" fill="#386B45"/>
<path d="M243.526 55.0437C243.526 55.0437 221.778 76.0947 228.483 87.7983C233.877 97.2142 267.359 99.2086 269.612 96.662L272.489 90.3024C270.057 84.5466 257.641 82.2385 247.808 79.9846L259.009 69.7482C268.759 60.2868 255.764 44.2206 243.526 55.0437Z" fill="#333333"/>
<path d="M275.634 57.1257C275.634 57.1257 277.479 58.242 277.224 60.9847C281.033 57.9314 277.231 47.8855 267.547 44.373C258.362 41.0416 275.634 57.1257 275.634 57.1257Z" fill="#417D51"/>
<path d="M264.82 46.3523C262.008 49.3617 275.634 57.1257 275.634 57.1257L285.209 44.1952L274.083 36.9034L264.82 46.3523Z" fill="#FFA794"/>
<path d="M270.493 33.0667C270.493 33.0667 273.476 52.6773 289.61 51.018C296.832 50.2753 300.001 39.562 299.954 33.3004C299.849 19.5297 287.903 12.7461 280.687 15.7978C268.723 20.8578 270.439 31.2132 270.493 33.0667Z" fill="#FFA794"/>
<path d="M272.808 40.5176C272.808 40.5176 275.923 49.3948 283.8 51.0403C286.977 51.4851 287.801 51.1175 287.801 51.1175C286.487 51.0746 277.767 48.4047 276.387 38.686C275.896 36.8123 272.178 38.2233 272.808 40.5176Z" fill="#222222"/>
<path d="M277.522 39.725C279.284 36.7432 280.192 32.7356 281.218 28.5393C286.48 29.2374 293.434 29.9808 300.91 29.8946C303.033 29.9048 304.152 14.5799 287.026 12.2055C280.114 11.2472 271.495 13.5858 267.844 20.3762C263.912 27.6903 264.9 35.9679 268.396 39.668C270.626 42.0273 275.127 42.5306 277.522 39.725Z" fill="#FF5722"/>
<mask id="mask0_1907_5758" style="mask-type:luminance" maskUnits="userSpaceOnUse" x="265" y="12" width="38" height="30">
<path d="M277.522 39.725C279.284 36.7432 280.192 32.7356 281.218 28.5393C286.48 29.2374 293.434 29.9808 300.91 29.8946C303.033 29.9048 304.152 14.5799 287.026 12.2055C280.114 11.2472 271.495 13.5858 267.844 20.3762C263.912 27.6903 264.9 35.9679 268.396 39.668C270.626 42.0273 275.127 42.5306 277.522 39.725Z" fill="white"/>
</mask>
<g mask="url(#mask0_1907_5758)">
<path d="M296.123 29.7242L295.164 29.9187C296.792 23.7262 292.932 18.9594 290.401 16.9131C286.059 13.4012 279.883 11.701 276.914 13.2009L276.533 12.4469C279.821 10.7861 286.281 12.4948 290.932 16.2563C293.621 18.4311 297.871 23.0724 296.123 29.7242Z" fill="white"/>
</g>
<mask id="mask1_1907_5758" style="mask-type:luminance" maskUnits="userSpaceOnUse" x="265" y="12" width="38" height="30">
<path d="M277.522 39.725C279.284 36.7432 280.192 32.7356 281.218 28.5393C286.48 29.2374 293.434 29.9808 300.91 29.8946C303.033 29.9048 304.152 14.5799 287.026 12.2055C280.114 11.2472 271.495 13.5858 267.844 20.3762C263.912 27.6903 264.9 35.9679 268.396 39.668C270.626 42.0273 275.127 42.5306 277.522 39.725Z" fill="white"/>
</mask>
<g mask="url(#mask1_1907_5758)">
<path d="M297.835 30.3034L297.024 30.0651C298.328 25.6329 297.226 21.242 293.921 17.7018C290.148 13.6605 284.334 11.6694 279.456 12.7466L279.273 11.9219C284.435 10.7817 290.568 12.8733 294.538 17.1253C298.055 20.8928 299.226 25.5728 297.835 30.3034Z" fill="white"/>
</g>
<path d="M292.139 39.1397C291.394 39.1498 290.798 39.0333 290.749 39.0236C290.597 38.9931 290.498 38.8446 290.529 38.6923C290.56 38.5402 290.707 38.4405 290.86 38.4716C290.882 38.4758 293.017 38.8908 294.103 38.0362C294.193 37.965 294.239 37.8701 294.246 37.7373C294.3 36.7682 292.483 34.7592 291.778 34.0671C291.667 33.9581 291.666 33.7797 291.775 33.669C291.884 33.5578 292.062 33.5567 292.173 33.6654C292.451 33.9387 294.885 36.3729 294.808 37.7682C294.792 38.0618 294.669 38.3074 294.451 38.4787C293.802 38.9898 292.893 39.1295 292.139 39.1397Z" fill="#B3523D"/>
<path d="M285.495 32.8793C285.423 33.6501 284.9 34.2456 284.327 34.2098C283.754 34.174 283.347 33.5201 283.418 32.7493C283.49 31.9785 284.013 31.383 284.586 31.4188C285.159 31.4548 285.566 32.1087 285.495 32.8793Z" fill="#222222"/>
<path d="M297.76 33.835C297.699 34.4935 297.252 35.0026 296.762 34.9719C296.272 34.9411 295.924 34.3825 295.986 33.7238C296.047 33.0653 296.493 32.5562 296.983 32.5869C297.473 32.6176 297.821 33.1764 297.76 33.835Z" fill="#222222"/>
<path d="M284.274 40.2531C284.274 40.2531 287.417 44.1032 294.551 43.6209C294.551 43.6209 290.507 49.1265 285.709 46.8447C280.912 44.563 284.274 40.2531 284.274 40.2531Z" fill="#B33A20"/>
<path d="M281.219 28.5393C289.124 29.3588 296.738 30.0818 301.307 29.7967C301.307 29.7967 306.548 31.4042 305.162 32.4768C303.777 33.5491 281.219 28.5393 281.219 28.5393Z" fill="#222222"/>
<path d="M267.547 44.3732C267.547 44.3732 264.608 43.0031 263.197 45.9376C263.578 53.2924 269.174 60.2543 272.058 60.9458C272.525 59.7567 273.527 58.2902 275.634 57.1259C275.634 57.1259 267.565 50.4361 267.547 44.3732Z" fill="#333333"/>
<path d="M321.818 197.189C325.545 185.742 319.878 173.633 309.16 170.144C298.441 166.654 286.731 173.105 283.004 184.552C279.277 195.999 284.945 208.108 295.663 211.598C306.381 215.087 318.091 208.637 321.818 197.189Z" fill="#222222"/>
<path d="M328.04 192.498C326.878 205.019 316.832 214.554 303.679 213.731C290.526 212.908 280.805 202.09 281.967 189.57C283.129 177.05 294.734 167.567 307.887 168.391C321.04 169.214 329.202 179.978 328.04 192.498Z" fill="#222222"/>
<path d="M316.134 195.338C318.769 187.243 314.761 178.681 307.183 176.214C299.604 173.746 291.323 178.307 288.688 186.402C286.052 194.496 290.06 203.058 297.639 205.526C305.218 207.994 313.498 203.432 316.134 195.338Z" fill="#CCCCCC"/>
<path d="M308.241 192.874C309.469 189.1 307.601 185.109 304.068 183.958C300.534 182.808 296.674 184.934 295.445 188.708C294.217 192.482 296.085 196.473 299.618 197.624C303.152 198.774 307.012 196.648 308.241 192.874Z" fill="#737373"/>
<path d="M312.942 174.159C308.809 179.386 303.211 183.277 296.735 184.903C296.342 185 295.946 185.092 295.548 185.172C294.909 185.304 294.268 185.412 293.621 185.495C292.168 185.686 290.698 185.765 289.23 185.728C288.674 185.715 288.117 185.685 287.562 185.64L287.141 185.606L261.553 183.49C261.551 183.49 261.551 183.49 261.551 183.49L237.141 181.798C225.662 181.08 227.016 176.706 237.988 175.182C272.167 175.323 287.464 139.003 278.822 119.916C275.874 112.935 283.683 107.58 291.186 106.44C292.166 106.29 293.141 106.213 294.084 106.214C294.735 106.212 295.373 106.249 295.987 106.326C296.181 106.352 296.369 106.378 296.558 106.411C297.508 106.536 298.436 106.736 299.329 107.019C302.017 107.873 304.366 109.469 305.921 111.96L317.491 138.108C323.115 150.819 320.435 164.683 312.942 174.159Z" fill="#FF5722"/>
<path d="M310.761 159.012C310.665 159.654 310.549 160.285 310.417 160.908L313.591 161.043C313.667 160.633 313.737 160.227 313.796 159.829C315.217 150.359 312.606 142.643 312.495 142.32L299.33 107.019C298.436 106.736 296.294 106.451 295.643 106.453L309.657 143.626C309.794 144.036 311.99 150.831 310.761 159.012Z" fill="white"/>
<path d="M311.199 83.4991V83.502C310.861 83.4602 310.514 83.4498 310.163 83.4732C309.569 83.5121 308.983 83.6441 308.41 83.8585C304.139 85.4444 300.568 91.6165 300.069 98.7774C299.728 103.661 300.893 107.891 302.968 110.415C303.628 111.217 304.377 111.846 305.202 112.27L299.641 110.334L299.167 110.169C295.333 108.66 292.804 103.334 293.225 96.8392C293.719 89.2523 298.055 82.8331 303.05 82.1146C303.956 82.1434 304.892 82.2183 305.857 82.3441C307.551 82.5623 309.331 82.9385 311.199 83.4991Z" fill="#FF6162"/>
<path d="M299.167 110.169L282.797 104.471C282.797 104.471 277.072 101.873 280.34 94.0742C280.34 94.0742 287.712 81.621 303.051 82.1146C298.055 82.8328 293.719 89.2523 293.226 96.8392C292.804 103.334 295.333 108.66 299.167 110.169Z" fill="#FF5722"/>
<path d="M311.198 83.5018C311.061 84.1844 310.839 85.3259 310.564 86.7741C309.483 92.4621 307.562 102.856 306.518 108.525C306.077 110.92 305.79 112.474 305.79 112.474L305.201 112.27C304.377 111.846 303.627 111.217 302.968 110.415C300.892 107.89 299.727 103.661 300.069 98.7772C300.567 91.6165 304.139 85.4442 308.409 83.8584C308.983 83.6439 309.569 83.5122 310.162 83.473C310.514 83.4496 310.86 83.4602 311.198 83.5018Z" fill="#FF5722"/>
<path d="M318.201 97.5728C317.634 105.691 313.114 112.543 308.108 112.877C307.071 112.946 306.093 112.728 305.201 112.27C304.377 111.846 303.627 111.217 302.968 110.415C300.892 107.89 299.727 103.66 300.069 98.7771C300.567 91.6165 304.139 85.4441 308.409 83.8583C308.983 83.6439 309.569 83.5121 310.162 83.473C310.514 83.4495 310.86 83.4599 311.198 83.5017C315.654 84.0382 318.728 90.024 318.201 97.5728Z" fill="#FF6162"/>
<path d="M317.232 97.6626C316.762 104.398 313.012 110.084 308.858 110.361C307.997 110.418 307.186 110.237 306.446 109.857C305.762 109.505 305.14 108.983 304.593 108.318C302.871 106.223 301.904 102.714 302.188 98.662C302.601 92.7206 305.565 87.5994 309.108 86.2837C309.584 86.1058 310.07 85.9963 310.562 85.964C310.854 85.9446 311.141 85.9532 311.422 85.9879C315.119 86.4327 317.67 91.3992 317.232 97.6626Z" fill="white"/>
<path d="M286.542 100.668L267.064 101.101L267.111 92.6555L286.583 93.3244C290.361 93.2404 290.138 100.588 286.542 100.668Z" fill="#222222"/>
<path d="M269.792 96.9454C269.849 94.6132 268.688 92.6929 267.197 92.656C265.706 92.6192 264.451 94.4799 264.393 96.812C264.336 99.1441 265.498 101.065 266.988 101.101C268.479 101.138 269.734 99.2775 269.792 96.9454Z" fill="#222222"/>
<path d="M316.301 167.723C315.536 169.946 314.356 172.11 312.94 174.159C308.807 179.385 303.209 183.277 296.734 184.902C295.709 185.16 294.669 185.358 293.621 185.496C291.615 185.76 289.578 185.805 287.561 185.641L287.141 185.606L261.553 183.491C261.805 183.475 277.601 184.817 289.257 166.601C299.289 151.391 320.483 155.568 316.301 167.723Z" fill="#B00020"/>
<path d="M335.811 188.81C335.99 188.653 336.098 188.483 336.124 188.297C338.293 173.042 320.218 156.741 306.149 158.346C293.857 161.584 286.214 172.472 284.564 185.393L335.811 188.81Z" fill="#FF5722"/>
<path d="M269.095 92.2198C269.095 92.2198 271.912 88.0852 278.387 90.3552C284.862 92.6252 282.658 99.8756 280.917 100.793C279.177 101.71 273.15 102.547 274.03 100.946C274.909 99.3449 275.834 96.6721 274.357 94.4673C273.345 92.9579 269.049 92.722 269.049 92.722L269.095 92.2198Z" fill="#FFA794"/>
<path d="M187.395 121.3L184.808 121.004L186.367 107.37L175.438 106.686L173.911 120.035L171.324 119.739L172.991 105.162C173.07 104.473 173.675 103.97 174.366 104.01L187.898 104.857C188.254 104.879 188.586 105.047 188.815 105.321C189.044 105.594 189.151 105.95 189.11 106.305L187.395 121.3Z" fill="#222222"/>
<path opacity="0.8" d="M156.773 174.909L205.791 178.881L203.854 187.509L156.334 180.428L156.773 174.909Z" fill="#222222"/>
<path opacity="0.8" d="M282.749 185.243L328.128 188.329C328.248 191.52 327.973 194.476 327.176 197.122L281.861 190.798C281.993 188.786 282.251 186.897 282.749 185.243Z" fill="#222222"/>
<path d="M162.634 44.0721C168.024 38.682 168.024 29.943 162.634 24.5529C157.244 19.1628 148.505 19.1628 143.115 24.5529C137.725 29.943 137.725 38.682 143.115 44.0721C148.505 49.4622 157.244 49.4622 162.634 44.0721Z" fill="#4CAF50"/>
<path d="M152.133 40.8012L145.701 30.7514L146.781 29.6098L152.111 34.6523L168.224 20.3L169.272 21.6341L152.133 40.8012Z" fill="white"/>
<defs>
<linearGradient id="paint0_linear_1907_5758" x1="-56" y1="177.97" x2="474" y2="177.97" gradientUnits="userSpaceOnUse">
<stop stop-color="#B07356"/>
<stop offset="1" stop-color="#C9C9C9"/>
</linearGradient>
</defs>
</svg>
