<svg width="30" height="34" viewBox="0 0 30 34" fill="none" xmlns="http://www.w3.org/2000/svg">
<path d="M29.1685 32.8464C29.1685 26.6383 22.9924 21.6172 15.3887 21.6172C7.78493 21.6172 1.60889 26.6383 1.60889 32.8464M15.3887 16.8047C17.5159 16.8047 19.5561 15.9597 21.0603 14.4555C22.5645 12.9513 23.4095 10.9112 23.4095 8.78391C23.4095 6.65665 22.5645 4.61652 21.0603 3.11232C19.5561 1.60813 17.5159 0.763077 15.3887 0.763077C13.2614 0.763077 11.2213 1.60813 9.71709 3.11232C8.2129 4.61652 7.36785 6.65665 7.36785 8.78391C7.36785 10.9112 8.2129 12.9513 9.71709 14.4555C11.2213 15.9597 13.2614 16.8047 15.3887 16.8047Z" stroke="#B0B0B0" stroke-width="1.5" stroke-linecap="round" stroke-linejoin="round"/>
</svg>
