<svg width="3042" height="2029" viewBox="0 0 3042 2029" fill="none" xmlns="http://www.w3.org/2000/svg">
<g clip-path="url(#clip0_351_13964)">
<path d="M1688.37 224.528C1293.63 346.396 1010.45 16.0727 700.648 310.081C390.845 604.089 675.018 1477.27 1330.76 1576.35C1814.83 1649.52 2279.26 1537.07 2398.21 1074.21C2539.02 526.375 2083.12 102.659 1688.37 224.528Z" fill="#DDF0DE"/>
<path d="M1546.54 1844.64C2059.13 1844.64 2474.67 1794.95 2474.67 1733.65C2474.67 1672.35 2059.13 1622.65 1546.54 1622.65C1033.96 1622.65 618.423 1672.35 618.423 1733.65C618.423 1794.95 1033.96 1844.64 1546.54 1844.64Z" fill="#D5F1D7"/>
<path d="M2350.27 750.551H1709.94V1683.73H2350.27V750.551Z" fill="#73E890"/>
<path d="M2350.27 750.551H2112.25V1683.73H2350.27V750.551Z" fill="#6DE68B"/>
<path d="M1759.04 998.301H2062.59V795.059H1759.04V998.301ZM1779.62 815.605H2041.99V977.754H1779.62V815.605Z" fill="#C7E8FF"/>
<path d="M1956.08 842.484H1852.08C1850.59 842.448 1849.1 842.711 1847.71 843.258C1846.32 843.804 1845.06 844.624 1843.99 845.668C1842.92 846.712 1842.07 847.959 1841.49 849.336C1840.91 850.713 1840.61 852.192 1840.61 853.686C1840.61 855.181 1840.91 856.66 1841.49 858.037C1842.07 859.414 1842.92 860.661 1843.99 861.705C1845.06 862.749 1846.32 863.568 1847.71 864.115C1849.1 864.662 1850.59 864.925 1852.08 864.889H1956.08C1957.58 864.925 1959.06 864.662 1960.45 864.115C1961.85 863.568 1963.11 862.749 1964.18 861.705C1965.25 860.661 1966.1 859.414 1966.68 858.037C1967.26 856.66 1967.56 855.181 1967.56 853.686C1967.56 852.192 1967.26 850.713 1966.68 849.336C1966.1 847.959 1965.25 846.712 1964.18 845.668C1963.11 844.624 1961.85 843.804 1960.45 843.258C1959.06 842.711 1957.58 842.448 1956.08 842.484Z" fill="#F6F1EF"/>
<path d="M1759.04 1244.11H2062.59V1040.86H1759.04V1244.11ZM1779.62 1061.41H2041.99V1223.56H1779.62V1061.41Z" fill="#C7E8FF"/>
<path d="M1956.08 1088.29H1852.08C1849.11 1088.29 1846.27 1089.47 1844.16 1091.57C1842.06 1093.67 1840.88 1096.51 1840.88 1099.48C1840.88 1102.45 1842.06 1105.3 1844.16 1107.4C1846.27 1109.5 1849.11 1110.68 1852.08 1110.68H1956.08C1959.05 1110.68 1961.9 1109.5 1964 1107.4C1966.1 1105.3 1967.28 1102.45 1967.28 1099.48C1967.28 1096.51 1966.1 1093.67 1964 1091.57C1961.9 1089.47 1959.05 1088.29 1956.08 1088.29ZM1759.04 1489.91H2062.59V1286.67H1759.04V1489.91ZM1779.62 1307.21H2041.99V1469.36H1779.62V1307.21Z" fill="#C7E8FF"/>
<path d="M1956.08 1334.08H1852.08C1850.59 1334.05 1849.1 1334.31 1847.71 1334.86C1846.32 1335.4 1845.06 1336.22 1843.99 1337.27C1842.92 1338.31 1842.07 1339.56 1841.49 1340.93C1840.91 1342.31 1840.61 1343.79 1840.61 1345.28C1840.61 1346.78 1840.91 1348.26 1841.49 1349.63C1842.07 1351.01 1842.92 1352.26 1843.99 1353.3C1845.06 1354.35 1846.32 1355.17 1847.71 1355.71C1849.1 1356.26 1850.59 1356.52 1852.08 1356.49H1956.08C1957.58 1356.52 1959.06 1356.26 1960.45 1355.71C1961.85 1355.17 1963.11 1354.35 1964.18 1353.3C1965.25 1352.26 1966.1 1351.01 1966.68 1349.63C1967.26 1348.26 1967.56 1346.78 1967.56 1345.28C1967.56 1343.79 1967.26 1342.31 1966.68 1340.93C1966.1 1339.56 1965.25 1338.31 1964.18 1337.27C1963.11 1336.22 1961.85 1335.4 1960.45 1334.86C1959.06 1334.31 1957.58 1334.05 1956.08 1334.08Z" fill="#C7E8FF"/>
<path d="M1373.61 310.625H860.749C821.839 310.625 790.296 342.168 790.296 381.078V1650.24C790.296 1689.15 821.839 1720.69 860.749 1720.69H1373.61C1412.52 1720.69 1444.06 1689.15 1444.06 1650.24V381.078C1444.06 342.168 1412.52 310.625 1373.61 310.625Z" fill="#53CD71"/>
<path d="M1416.52 311.547H903.662C864.752 311.547 833.209 343.09 833.209 382V1652.87C833.209 1691.78 864.752 1723.32 903.662 1723.32H1416.52C1455.43 1723.32 1486.97 1691.78 1486.97 1652.87V382C1486.97 343.09 1455.43 311.547 1416.52 311.547Z" fill="#99F4B0"/>
<path d="M1403.19 440.367H933.082C929.513 440.369 925.954 440.722 922.454 441.42H1372.15C1386.63 441.42 1400.52 447.172 1410.76 457.412C1421 467.651 1426.75 481.539 1426.75 496.02V1518.14C1426.75 1532.63 1421 1546.51 1410.76 1556.75C1400.52 1566.99 1386.63 1572.74 1372.15 1572.74H915.85C915.59 1572.74 915.33 1572.74 915.07 1572.74C920.864 1574.8 926.967 1575.85 933.114 1575.85H1403.22C1410.31 1575.85 1417.33 1574.46 1423.88 1571.75C1430.43 1569.04 1436.38 1565.07 1441.39 1560.06C1446.4 1555.05 1450.38 1549.1 1453.09 1542.55C1455.81 1536 1457.2 1528.98 1457.2 1521.9V494.323C1457.2 487.233 1455.81 480.211 1453.09 473.661C1450.38 467.11 1446.4 461.159 1441.38 456.148C1436.36 451.137 1430.41 447.163 1423.85 444.456C1417.3 441.748 1410.28 440.358 1403.19 440.367ZM1290.94 360.625H1040.57C1036.15 360.625 1031.92 362.379 1028.79 365.5C1025.67 368.622 1023.91 372.856 1023.91 377.271C1023.91 379.458 1024.34 381.624 1025.18 383.644C1026.02 385.665 1027.24 387.501 1028.79 389.047C1030.34 390.593 1032.17 391.82 1034.19 392.657C1036.21 393.494 1038.38 393.924 1040.57 393.924H1290.94C1295.35 393.923 1299.59 392.168 1302.71 389.045C1305.83 385.922 1307.59 381.687 1307.59 377.271C1307.58 372.857 1305.83 368.624 1302.71 365.503C1299.59 362.381 1295.35 360.627 1290.94 360.625Z" fill="#53CD71"/>
<path d="M958.36 401.918C970.21 401.918 979.817 391.325 979.817 378.258C979.817 365.191 970.21 354.598 958.36 354.598C946.51 354.598 936.904 365.191 936.904 378.258C936.904 391.325 946.51 401.918 958.36 401.918Z" fill="#0154AD"/>
<path d="M1385.03 439.93H902.961C879.907 439.93 861.218 458.619 861.218 481.673V1533.45C861.218 1556.5 879.907 1575.19 902.961 1575.19H1385.03C1408.09 1575.19 1426.78 1556.5 1426.78 1533.45V481.673C1426.78 458.619 1408.09 439.93 1385.03 439.93Z" fill="#BAE1D7"/>
<path d="M1181.25 1696.71C1206.26 1696.71 1226.54 1674.34 1226.54 1646.75C1226.54 1619.17 1206.26 1596.8 1181.25 1596.8C1156.23 1596.8 1135.95 1619.17 1135.95 1646.75C1135.95 1674.34 1156.23 1696.71 1181.25 1696.71Z" fill="#6DE68B"/>
<path d="M1181.25 1599.05C1175.16 1599.06 1169.15 1600.47 1163.7 1603.17C1185.52 1605.6 1202.55 1625.92 1202.55 1650.62C1202.55 1670.07 1191.96 1686.79 1176.81 1694.17C1178.27 1694.33 1179.74 1694.42 1181.21 1694.42C1205.1 1694.42 1224.46 1673.06 1224.46 1646.72C1224.46 1620.37 1205.13 1599.05 1181.25 1599.05Z" fill="#53CD71"/>
<path d="M1810.52 1706.23L1820.21 1729L1865.78 1713.23L1878.73 1640.53L1812.6 1633.27L1810.52 1706.23Z" fill="#FACEC8"/>
<path d="M2203.72 1620.11L2241.61 1681.97L2262.62 1700.95L2297.78 1664.05L2265.74 1598.69L2203.72 1620.11Z" fill="#FACEC8"/>
<path d="M2087.86 929.796L1895.74 927.371C1890.17 967.671 1879.23 1021.97 1873.36 1043.07C1838.69 1167.66 1819.01 1240.59 1809.43 1301.34C1796.9 1380.77 1787.16 1659.41 1787.16 1659.41L1899.92 1665.52L1951.43 1353.88C1951.43 1353.88 1960.93 1332.54 1974.91 1301.02C2011.51 1218.63 2078.77 1066.84 2087.05 1045.68C2087.48 1044.58 2087.76 1043.83 2087.86 1043.47C2092.4 1026.82 2083.71 942.874 2087.86 929.796Z" fill="#F79835"/>
<path d="M2031.48 1003.12C1984.96 1003.12 1947.25 1079.73 1947.25 1174.22C1947.25 1224.5 1957.93 1269.71 1974.91 1300.97C2011.51 1218.59 2078.77 1066.79 2087.05 1045.63C2072.2 1019.19 2052.76 1003.12 2031.48 1003.12Z" fill="#C86020"/>
<path d="M2173.96 1063.29C2172.01 1038.27 2167.2 967.679 2159.09 929.797H1964.7C1967.48 968.712 1972.06 1029.51 1976.58 1074.66C1978.26 1091.39 1979.93 1105.97 1981.5 1116.49C1986.76 1151.86 1992.08 1203.59 1997.1 1262.04C2000.67 1303.58 1994.95 1357.12 2023.8 1394.2C2062.8 1444.31 2204.77 1656.96 2204.77 1656.96L2299.44 1617.85L2153.27 1315.99C2153.27 1315.99 2178.63 1123.55 2173.96 1063.29Z" fill="#F79835"/>
<path d="M2178.86 1626.88L2202.25 1664.69L2307.34 1623.11L2288.25 1583.7L2178.86 1626.88Z" fill="#FFC32F"/>
<path d="M1786.06 1670.22L1905.54 1676.91L1910.1 1632.45L1783.16 1623.07L1786.06 1670.22Z" fill="#FFC32F"/>
<path d="M1818.7 1699.57C1818.7 1699.57 1816.18 1686.87 1808.4 1695.54C1808.4 1695.54 1804.5 1713.87 1788.85 1721.15C1773.19 1728.43 1758.4 1746.87 1752.15 1747.39C1745.91 1747.9 1710.93 1751.64 1716.36 1763.2C1721.8 1774.75 1776.96 1771.7 1800.94 1769.22C1824.92 1766.74 1880.31 1755.77 1880.31 1755.77L1869.65 1701.52L1818.7 1699.57Z" fill="#3FAE5A"/>
<path d="M1880.27 1755.77C1880.27 1755.77 1824.89 1766.73 1800.91 1769.21C1776.93 1771.7 1721.77 1774.75 1716.33 1763.19C1715.91 1762.34 1715.73 1761.4 1715.8 1760.46L1715.03 1760.63C1715.03 1760.63 1705.54 1774.16 1719.91 1779.95C1734.27 1785.74 1784.97 1785.57 1798.88 1783.16C1812.78 1780.75 1854.44 1778.27 1861.89 1778.68C1869.35 1779.09 1887.03 1776.3 1886.08 1771.09C1885.12 1765.87 1880.27 1755.77 1880.27 1755.77Z" fill="#146227"/>
<path d="M1754.3 1746.52C1754.3 1746.52 1750.18 1748.14 1748.1 1747.85C1748.1 1747.85 1754.36 1749.15 1757.94 1757.1C1760.08 1761.79 1761.58 1766.75 1762.4 1771.83L1768.41 1771.42C1768.41 1771.42 1766.94 1753.96 1754.3 1746.52Z" fill="#F48F9C"/>
<path d="M1840.64 1763.31L1845.04 1762.41C1845.04 1762.41 1848.36 1741.8 1875.54 1728.69L1874.42 1724.79C1874.42 1724.79 1842.37 1738.02 1840.64 1763.31ZM1809.6 1711.68L1803.99 1707.46L1800.42 1711.53C1800.42 1711.53 1811.15 1723.36 1829.99 1724.87C1848.83 1726.38 1873.54 1720.81 1873.54 1720.81L1872.24 1715.87C1872.24 1715.87 1836.34 1729.21 1809.6 1711.68ZM1763.54 1738.64C1763.12 1738.42 1762.63 1738.36 1762.18 1738.49C1761.72 1738.62 1761.33 1738.92 1761.09 1739.33C1760.98 1739.54 1760.9 1739.77 1760.88 1740C1760.85 1740.23 1760.87 1740.47 1760.93 1740.7C1761 1740.92 1761.11 1741.14 1761.26 1741.32C1761.4 1741.5 1761.59 1741.66 1761.79 1741.77C1761.84 1741.77 1766.88 1744.68 1766.48 1751.84C1766.46 1752.21 1766.55 1752.57 1766.74 1752.88C1766.94 1753.19 1767.22 1753.44 1767.56 1753.58C1767.75 1753.67 1767.96 1753.72 1768.18 1753.73C1768.41 1753.74 1768.65 1753.71 1768.87 1753.63C1769.09 1753.55 1769.3 1753.43 1769.47 1753.27C1769.65 1753.12 1769.79 1752.93 1769.89 1752.71C1770 1752.5 1770.05 1752.27 1770.07 1752.03C1770.6 1742.66 1763.83 1738.8 1763.54 1738.64ZM1773.56 1729.91C1773.36 1729.77 1773.13 1729.68 1772.89 1729.63C1772.66 1729.59 1772.41 1729.59 1772.17 1729.64C1771.93 1729.7 1771.71 1729.8 1771.51 1729.94C1771.31 1730.08 1771.15 1730.27 1771.02 1730.47C1770.9 1730.68 1770.82 1730.92 1770.78 1731.16C1770.75 1731.4 1770.77 1731.65 1770.83 1731.88C1770.9 1732.11 1771.01 1732.33 1771.17 1732.52C1771.32 1732.71 1771.51 1732.87 1771.72 1732.98C1771.79 1733.02 1778.19 1736.88 1778.41 1743.93C1778.43 1744.27 1778.53 1744.6 1778.73 1744.88C1778.92 1745.16 1779.19 1745.38 1779.5 1745.51C1779.74 1745.62 1780.01 1745.66 1780.27 1745.66C1780.51 1745.65 1780.74 1745.6 1780.95 1745.5C1781.17 1745.4 1781.36 1745.26 1781.52 1745.09C1781.68 1744.92 1781.81 1744.72 1781.89 1744.5C1781.98 1744.28 1782.02 1744.04 1782.01 1743.81C1781.72 1734.86 1773.9 1730.12 1773.56 1729.91ZM1785.1 1721.67C1784.91 1721.54 1784.69 1721.44 1784.46 1721.39C1784.23 1721.34 1783.99 1721.33 1783.76 1721.37C1783.53 1721.42 1783.31 1721.5 1783.11 1721.63C1782.91 1721.75 1782.74 1721.92 1782.6 1722.11C1782.47 1722.3 1782.37 1722.52 1782.32 1722.75C1782.27 1722.98 1782.26 1723.22 1782.3 1723.45C1782.34 1723.68 1782.43 1723.91 1782.56 1724.1C1782.68 1724.3 1782.85 1724.48 1783.04 1724.61C1783.11 1724.65 1789.23 1729.03 1790.07 1736.31C1790.11 1736.62 1790.23 1736.92 1790.42 1737.17C1790.61 1737.42 1790.86 1737.62 1791.15 1737.75C1791.43 1737.87 1791.75 1737.92 1792.06 1737.88C1792.54 1737.83 1792.97 1737.59 1793.27 1737.22C1793.56 1736.84 1793.7 1736.37 1793.65 1735.89C1792.61 1727 1785.41 1721.9 1785.1 1721.67ZM1795.72 1715.56C1795.51 1715.45 1795.28 1715.39 1795.04 1715.37C1794.8 1715.36 1794.57 1715.39 1794.35 1715.47C1794.12 1715.55 1793.92 1715.68 1793.75 1715.84C1793.58 1716 1793.44 1716.19 1793.34 1716.41C1793.14 1716.83 1793.11 1717.32 1793.27 1717.77C1793.42 1718.22 1793.75 1718.59 1794.18 1718.79C1794.37 1718.89 1798.97 1721.24 1799.76 1729.02C1799.82 1729.48 1800.06 1729.91 1800.42 1730.2C1800.79 1730.49 1801.26 1730.63 1801.73 1730.58C1802.2 1730.54 1802.63 1730.31 1802.93 1729.95C1803.23 1729.59 1803.38 1729.12 1803.34 1728.65C1802.33 1718.75 1795.99 1715.68 1795.72 1715.56Z" fill="#ADCCEB"/>
<path d="M1827.1 1694.37C1824.63 1694 1822.11 1694.8 1819.88 1695.79C1817.41 1696.89 1815.02 1698.17 1812.73 1699.6C1810.45 1701.01 1808.28 1702.57 1806.23 1704.28C1805.15 1705.16 1804.12 1706.11 1803.16 1707.12C1802.89 1707.4 1802.66 1707.71 1802.42 1708.01C1802 1702.75 1801.02 1697.55 1799.48 1692.5C1798.7 1689.75 1797.71 1687.06 1796.52 1684.47C1795.41 1682.17 1793.77 1680.1 1791.32 1679.15C1790.23 1678.7 1789.04 1678.59 1787.89 1678.81C1786.73 1679.03 1785.67 1679.59 1784.82 1680.4C1784 1681.29 1783.37 1682.35 1783 1683.5C1782.62 1684.66 1782.5 1685.88 1782.64 1687.09C1783.05 1692.33 1785.89 1697.6 1788.89 1701.84C1790.39 1703.97 1792.09 1705.94 1793.97 1707.73C1795.46 1709.15 1798.96 1711.18 1800.81 1712.25L1803.74 1713.12C1803.73 1713.03 1803.72 1712.94 1803.7 1712.84C1803.72 1712.8 1803.74 1712.76 1803.76 1712.71C1809.05 1712.64 1814.31 1711.85 1819.4 1710.36C1821.86 1709.61 1824.28 1708.7 1826.62 1707.62C1828.8 1706.61 1831.17 1705.29 1832.32 1703.07C1834.46 1699.08 1831.15 1694.95 1827.1 1694.37ZM1795.74 1705.66C1793.91 1704 1792.26 1702.17 1790.81 1700.18C1788.14 1696.56 1785.75 1692.03 1785.02 1687.55C1784.65 1685.3 1785.02 1682.55 1787.16 1681.25C1789.3 1679.95 1791.98 1681.56 1793.32 1683.37C1794.75 1685.32 1795.55 1687.7 1796.35 1689.94C1797.21 1692.36 1797.94 1694.83 1798.54 1697.33C1799.48 1701.24 1800.13 1705.22 1800.49 1709.22C1798.91 1708.02 1797.2 1706.97 1795.74 1705.64V1705.66ZM1827.63 1704.36C1823.83 1706.43 1819.34 1707.61 1815.13 1708.5C1811.25 1709.32 1807.3 1709.73 1803.33 1709.73C1803.87 1709.3 1804.41 1708.87 1804.92 1708.43C1805.9 1707.55 1806.87 1706.66 1807.9 1705.83C1809.85 1704.2 1811.91 1702.7 1814.06 1701.34C1815.92 1700.16 1817.86 1699.11 1819.86 1698.19C1821.88 1697.26 1824.07 1696.41 1826.33 1696.6C1828.07 1696.74 1829.96 1697.73 1830.62 1699.44C1831.49 1701.6 1829.39 1703.35 1827.63 1704.31V1704.36ZM2248.28 1676.04C2248.28 1676.04 2240.1 1665.97 2237.28 1677.26C2237.28 1677.26 2242.38 1695.29 2231.98 1709C2221.58 1722.71 2217.1 1745.92 2211.83 1749.3C2206.56 1752.68 2177.38 1772.25 2187.58 1779.94C2197.78 1787.63 2245.16 1759.26 2265.2 1745.91C2285.25 1732.56 2329.09 1697.09 2329.09 1697.09L2294.3 1654.06L2248.28 1676.04Z" fill="#3FAE5A"/>
<path d="M2329.08 1697.07C2329.08 1697.07 2285.23 1732.54 2265.19 1745.89C2245.15 1759.24 2197.79 1787.61 2187.57 1779.92C2186.8 1779.36 2186.2 1778.61 2185.82 1777.75L2185.22 1778.26C2185.22 1778.26 2183.17 1794.64 2198.59 1793.08C2214 1791.52 2258.76 1767.78 2269.92 1759.16C2281.09 1750.55 2316.77 1728.99 2323.56 1725.88C2330.34 1722.78 2344.67 1712.09 2341.39 1707.91C2338.11 1703.74 2329.08 1697.07 2329.08 1697.07Z" fill="#146227"/>
<path d="M2213.34 1747.51C2213.34 1747.51 2210.46 1750.87 2208.48 1751.57C2208.48 1751.57 2214.63 1749.81 2221.52 1755.17C2225.61 1758.33 2229.25 1762.01 2232.37 1766.13L2237.48 1762.97C2237.48 1762.97 2228.01 1748.21 2213.34 1747.51ZM2309.4 1672.41C2309.4 1672.41 2287.25 1699.02 2297.56 1722.19L2301.03 1719.33C2301.03 1719.33 2294.32 1699.57 2312.22 1675.33L2309.4 1672.41ZM2245.93 1690.97L2239 1689.84L2237.74 1695.1C2237.74 1695.1 2252.78 1700.58 2270.14 1693.15C2287.51 1685.73 2306.75 1669.3 2306.75 1669.3L2303.31 1665.51C2303.31 1665.51 2277.8 1694.03 2245.93 1690.97ZM2217.8 1736.25C2217.56 1736.23 2217.31 1736.26 2217.08 1736.34C2216.85 1736.42 2216.64 1736.54 2216.46 1736.7C2216.28 1736.87 2216.13 1737.07 2216.03 1737.29C2215.93 1737.51 2215.87 1737.75 2215.86 1737.99C2215.86 1738.24 2215.9 1738.48 2215.99 1738.71C2216.09 1738.93 2216.22 1739.14 2216.4 1739.31C2216.57 1739.48 2216.77 1739.62 2217 1739.71C2217.23 1739.79 2217.47 1739.84 2217.72 1739.83C2217.77 1739.83 2223.57 1740.04 2226.58 1746.55C2226.73 1746.88 2226.98 1747.16 2227.3 1747.35C2227.62 1747.53 2227.98 1747.62 2228.35 1747.59C2228.56 1747.57 2228.77 1747.52 2228.96 1747.43C2229.17 1747.34 2229.37 1747.2 2229.53 1747.02C2229.69 1746.85 2229.81 1746.65 2229.9 1746.43C2229.98 1746.21 2230.02 1745.97 2230.01 1745.74C2230 1745.5 2229.94 1745.27 2229.84 1745.05C2225.94 1736.52 2218.16 1736.25 2217.8 1736.25ZM2222.6 1723.86C2222.37 1723.85 2222.13 1723.88 2221.91 1723.96C2221.69 1724.04 2221.49 1724.16 2221.31 1724.31C2221.14 1724.47 2220.99 1724.66 2220.89 1724.87C2220.79 1725.08 2220.73 1725.31 2220.72 1725.55C2220.71 1725.78 2220.74 1726.02 2220.82 1726.24C2220.9 1726.46 2221.02 1726.67 2221.17 1726.84C2221.33 1727.02 2221.52 1727.16 2221.73 1727.26C2221.94 1727.36 2222.17 1727.42 2222.41 1727.43C2222.49 1727.43 2229.97 1727.9 2233.46 1734C2233.69 1734.41 2234.08 1734.72 2234.54 1734.84C2235 1734.97 2235.49 1734.91 2235.91 1734.67C2236.32 1734.44 2236.62 1734.05 2236.75 1733.59C2236.88 1733.13 2236.81 1732.64 2236.58 1732.22C2232.13 1724.44 2223 1723.87 2222.6 1723.86ZM2228.95 1711.22C2228.71 1711.17 2228.47 1711.18 2228.23 1711.23C2227.99 1711.29 2227.77 1711.39 2227.57 1711.54C2227.38 1711.68 2227.21 1711.86 2227.09 1712.08C2226.97 1712.29 2226.89 1712.52 2226.86 1712.76C2226.83 1713 2226.85 1713.25 2226.91 1713.48C2226.98 1713.72 2227.1 1713.93 2227.25 1714.12C2227.41 1714.31 2227.6 1714.46 2227.82 1714.58C2228.03 1714.69 2228.27 1714.75 2228.51 1714.77C2228.58 1714.77 2236.05 1715.8 2240.21 1721.86C2240.49 1722.23 2240.9 1722.47 2241.36 1722.55C2241.81 1722.62 2242.28 1722.52 2242.66 1722.26C2243.05 1722 2243.31 1721.6 2243.41 1721.15C2243.51 1720.69 2243.42 1720.22 2243.18 1719.83C2238.08 1712.42 2229.32 1711.27 2228.95 1711.22ZM2235.47 1700.87C2235.24 1700.88 2235 1700.93 2234.79 1701.02C2234.57 1701.12 2234.38 1701.26 2234.22 1701.44C2234.06 1701.61 2233.94 1701.81 2233.86 1702.04C2233.78 1702.26 2233.75 1702.5 2233.77 1702.73C2233.79 1703.21 2234 1703.65 2234.34 1703.97C2234.69 1704.3 2235.15 1704.47 2235.62 1704.46C2235.84 1704.46 2241.01 1704.38 2245.37 1710.9C2245.55 1711.16 2245.8 1711.38 2246.08 1711.52C2246.37 1711.66 2246.69 1711.72 2247.01 1711.69C2247.32 1711.67 2247.61 1711.57 2247.86 1711.4C2248.06 1711.27 2248.23 1711.1 2248.36 1710.91C2248.49 1710.71 2248.58 1710.49 2248.63 1710.26C2248.68 1710.03 2248.68 1709.79 2248.63 1709.56C2248.58 1709.33 2248.49 1709.11 2248.36 1708.91C2242.82 1700.6 2235.77 1700.87 2235.47 1700.87Z" fill="#ADCCEB"/>
<path d="M2253.3 1667.49C2250.93 1668.31 2249.08 1670.19 2247.57 1672.12C2244.27 1676.34 2241.55 1681 2239.5 1685.95C2238.96 1687.24 2238.5 1688.55 2238.12 1689.89C2238.01 1690.27 2237.96 1690.65 2237.88 1691.02C2235.05 1686.57 2231.74 1682.43 2228.02 1678.67C2226.04 1676.6 2223.91 1674.69 2221.64 1672.95C2219.58 1671.43 2217.16 1670.35 2214.55 1670.67C2213.39 1670.78 2212.28 1671.23 2211.37 1671.96C2210.46 1672.69 2209.78 1673.68 2209.42 1674.79C2209.1 1675.96 2209.05 1677.19 2209.25 1678.38C2209.46 1679.58 2209.93 1680.71 2210.62 1681.71C2213.43 1686.16 2218.42 1689.51 2223.05 1691.85C2225.36 1693.04 2227.79 1693.99 2230.3 1694.7C2232.28 1695.27 2236.32 1695.43 2238.47 1695.51L2241.47 1694.92C2241.42 1694.84 2241.36 1694.76 2241.3 1694.69C2241.3 1694.65 2241.3 1694.6 2241.3 1694.55C2245.95 1692.02 2250.23 1688.88 2254.03 1685.19C2255.86 1683.38 2257.56 1681.45 2259.13 1679.41C2260.59 1677.5 2262.06 1675.23 2262.05 1672.74C2262 1668.26 2257.16 1666.15 2253.3 1667.49ZM2230.85 1692.08C2228.46 1691.46 2226.14 1690.6 2223.92 1689.52C2219.86 1687.57 2215.63 1684.66 2212.87 1681.07C2211.49 1679.25 2210.53 1676.65 2211.81 1674.5C2213.08 1672.36 2216.21 1672.55 2218.24 1673.51C2220.41 1674.55 2222.25 1676.3 2224.01 1677.91C2225.9 1679.66 2227.7 1681.5 2229.4 1683.43C2232.06 1686.45 2234.49 1689.66 2236.68 1693.04C2234.76 1692.7 2232.75 1692.57 2230.85 1692.08ZM2258.43 1676.06C2256.03 1679.66 2252.62 1682.79 2249.33 1685.54C2246.28 1688.06 2242.98 1690.27 2239.47 1692.11C2239.74 1691.46 2240.02 1690.86 2240.26 1690.22C2240.73 1688.98 2241.17 1687.74 2241.67 1686.52C2242.63 1684.17 2243.75 1681.88 2245.02 1679.68C2246.12 1677.77 2247.34 1675.93 2248.67 1674.19C2250.03 1672.43 2251.56 1670.67 2253.65 1669.78C2255.26 1669.13 2257.39 1669.09 2258.78 1670.3C2260.57 1671.88 2259.54 1674.4 2258.43 1676.06Z" fill="#49719C"/>
<path d="M2174.85 776.575C2174.78 775.672 2174.71 774.768 2174.63 773.865C2172.68 751.42 2161.78 610.214 2149.28 599.47C2142.6 593.737 2035.62 571.773 2035.62 571.773C2035.62 571.773 1989.97 582.979 1947.87 601.673C1946.91 602.089 1945.96 602.512 1945.01 602.973C1922.97 612.964 1902.23 625.008 1889.9 638.554C1889.18 639.341 1888.48 640.134 1887.83 640.927C1883.71 645.925 1880.74 651.125 1879.3 656.494C1876.97 665.165 1877.27 685.328 1878.72 711.328C1878.79 712.57 1878.86 713.831 1878.94 715.098C1879.88 731.01 1881.2 748.898 1882.6 767.618C1882.67 768.645 1882.75 769.659 1882.82 770.686C1884.34 791.038 1885.91 812.215 1887.15 832.696C1887.2 833.743 1887.27 834.783 1887.33 835.829C1890.97 897.911 1888.84 941.818 1876.69 956.677C1890.26 967.077 1905.75 975.391 1922.94 981.826C1923.95 982.203 1924.97 982.573 1925.99 982.931C1949.25 991.257 1975.53 996.275 2004.25 998.602L2007.62 998.856C2019.28 999.723 2031.32 1000.16 2043.74 1000.16C2044.8 1000.16 2045.85 1000.16 2046.91 1000.16C2075.92 1000.06 2106.86 997.861 2139.26 994.046C2140.43 993.916 2141.61 993.773 2142.78 993.63C2150.32 992.724 2157.93 991.732 2165.62 990.653C2165.62 990.653 2180.96 917.047 2177.18 815.205C2176.7 802.738 2175.95 789.842 2174.85 776.575Z" fill="#B6202C"/>
<path d="M1876.67 739.521C1878.81 766.867 1883.64 793.894 1885.77 821.233C1885.92 823.183 1888.95 823.183 1888.8 821.233C1886.66 793.894 1881.83 766.867 1879.7 739.521C1879.55 737.571 1876.55 737.571 1876.67 739.521Z" fill="#2B2C20"/>
<path d="M1968.32 399.136C1944.44 405.168 1871.04 436.531 1867.33 444.155C1863.61 451.78 1863.59 455.205 1863.59 455.205C1863.59 455.205 1851.15 476.655 1857.12 492.905C1863.1 509.155 1869.47 516.188 1874.84 523.104C1880.65 530.553 1884.82 525.184 1896.04 517.989C1925.88 498.827 1955.62 499.542 1963.64 497.013C1971.65 494.485 1972.63 492.548 1988.43 487.913C2004.23 483.279 2022.36 474.705 2022.57 473.47C2022.79 472.235 2024.58 460.847 2011.39 441.159C1998.19 421.47 1992.21 393.111 1968.32 399.136Z" fill="#171C46"/>
<path d="M1943.65 534.51L1975.62 611.86C1975.62 611.86 1979.58 649.781 2006.17 641.11C2028.57 633.836 2044.64 583.396 2044.64 583.396L2008.84 496.797L1943.65 534.51Z" fill="#FAB995"/>
<path d="M1975.77 612.245L2007.14 549.5L1966.59 590.034L1975.77 612.245Z" fill="#F5917E"/>
<path d="M1969.57 434.023L1863.06 477.885L1904.94 579.181C1905.85 581.382 1907.27 583.332 1909.09 584.866C1910.91 586.401 1913.08 587.477 1915.4 588.002L1951.01 595.977C1953.46 596.537 1956.02 596.463 1958.43 595.762C1960.85 595.062 1963.05 593.758 1964.83 591.973L2007.36 549.476C2009.44 547.399 2010.86 544.754 2011.44 541.872C2012.02 538.991 2011.73 536.003 2010.61 533.285L1969.57 434.023Z" fill="#FAB995"/>
<path opacity="0.32" d="M1884.16 528.922L1900.65 568.813C1903.26 567.73 1905.65 566.142 1907.65 564.139C1909.66 562.136 1911.25 559.758 1912.33 557.141C1913.42 554.523 1913.98 551.717 1913.98 548.883C1913.98 546.048 1913.43 543.241 1912.35 540.622C1911.26 538.003 1909.67 535.623 1907.67 533.617C1905.67 531.612 1903.29 530.02 1900.67 528.934C1898.06 527.847 1895.25 527.287 1892.42 527.285C1889.58 527.283 1886.77 527.839 1884.16 528.922Z" fill="#EE8171"/>
<path d="M1932.52 530.548L1918.8 536.197L1905.9 492.816C1905.76 492.418 1905.47 492.091 1905.09 491.9C1904.71 491.71 1904.27 491.671 1903.87 491.791C1903.46 491.911 1903.12 492.182 1902.9 492.547C1902.69 492.913 1902.62 493.346 1902.72 493.758L1916.13 538.901C1916.26 539.319 1916.54 539.671 1916.92 539.882C1917.3 540.092 1917.75 540.144 1918.17 540.025C1918.24 540.01 1918.3 539.988 1918.36 539.96L1933.79 533.61C1934 533.531 1934.19 533.412 1934.35 533.258C1934.51 533.105 1934.63 532.921 1934.72 532.718C1934.81 532.514 1934.86 532.295 1934.86 532.073C1934.86 531.851 1934.82 531.631 1934.73 531.426C1934.65 531.221 1934.52 531.035 1934.36 530.88C1934.21 530.724 1934.02 530.601 1933.81 530.52C1933.61 530.438 1933.39 530.398 1933.16 530.403C1932.94 530.408 1932.72 530.457 1932.52 530.548Z" fill="#DE7360"/>
<path d="M2029.88 517.617C2044.86 515.045 2054.92 500.854 2052.36 485.92C2049.79 470.986 2035.57 460.965 2020.59 463.538C2005.61 466.11 1995.55 480.301 1998.11 495.235C2000.68 510.169 2014.9 520.19 2029.88 517.617Z" fill="#FAB995"/>
<path opacity="0.32" d="M1961.98 495.304C1958.04 496.946 1954.68 499.717 1952.31 503.269C1949.95 506.821 1948.69 510.995 1948.69 515.262C1948.7 519.529 1949.97 523.699 1952.34 527.245C1954.71 530.792 1958.08 533.555 1962.03 535.187C1965.97 536.819 1970.31 537.246 1974.49 536.415C1978.68 535.583 1982.52 533.53 1985.54 530.514C1988.56 527.499 1990.62 523.656 1991.46 519.472C1992.3 515.288 1991.87 510.949 1990.25 507.004C1989.17 504.376 1987.57 501.987 1985.57 499.975C1983.56 497.964 1981.17 496.369 1978.54 495.282C1975.92 494.194 1973.1 493.637 1970.26 493.641C1967.42 493.645 1964.6 494.21 1961.98 495.304Z" fill="#EE8171"/>
<path d="M1920.63 477.255C1923.13 483.021 1943.98 478.874 1942.77 473.16C1940.75 463.683 1916.65 468.123 1920.63 477.255ZM1871.14 502.15C1875.72 505.686 1890.7 493.115 1887.18 489.046C1881.33 482.299 1863.86 496.547 1871.14 502.15Z" fill="#2E100F"/>
<path d="M1932.58 490.027C1930.25 491.048 1929.79 495.11 1931.54 499.127C1933.3 503.144 1936.61 505.517 1938.94 504.496C1941.28 503.476 1941.74 499.407 1939.98 495.396C1938.22 491.386 1934.91 489 1932.58 490.027ZM1890.53 507.311C1888.2 508.331 1887.74 512.394 1889.49 516.411C1891.25 520.428 1894.57 522.8 1896.9 521.78C1899.22 520.759 1899.69 516.69 1897.93 512.68C1896.17 508.669 1892.86 506.284 1890.53 507.311Z" fill="#281C1C"/>
<path d="M2015.65 476.27C2009.44 479.871 1999.54 489.875 2006.5 501.9C2008.86 505.975 2011.7 508.972 2014.95 510.811C2015.14 510.936 2015.36 511.02 2015.58 511.059C2015.81 511.098 2016.04 511.09 2016.26 511.037C2016.48 510.984 2016.68 510.886 2016.87 510.749C2017.05 510.613 2017.2 510.441 2017.31 510.243C2017.42 510.046 2017.5 509.827 2017.52 509.602C2017.55 509.376 2017.52 509.147 2017.46 508.93C2017.39 508.713 2017.28 508.512 2017.13 508.339C2016.98 508.166 2016.8 508.026 2016.6 507.925C2013.86 506.385 2011.43 503.798 2009.38 500.242C2002.34 488.087 2016.67 479.507 2017.31 479.13C2017.52 479.029 2017.7 478.887 2017.84 478.713C2017.99 478.54 2018.09 478.339 2018.16 478.122C2018.22 477.905 2018.24 477.677 2018.22 477.453C2018.19 477.228 2018.12 477.012 2018 476.816C2017.89 476.621 2017.74 476.45 2017.55 476.316C2017.37 476.182 2017.16 476.086 2016.94 476.035C2016.72 475.984 2016.5 475.978 2016.27 476.019C2016.05 476.059 2015.84 476.145 2015.65 476.27Z" fill="#DE7360"/>
<path d="M2020.85 490.253C2016.69 489.473 2008.3 490.663 2006.36 500.77C2006.27 501.201 2006.36 501.649 2006.6 502.015C2006.85 502.38 2007.22 502.634 2007.66 502.72C2007.9 502.779 2008.16 502.779 2008.41 502.72C2008.71 502.637 2008.98 502.471 2009.19 502.241C2009.4 502.012 2009.55 501.727 2009.61 501.42C2011.37 492.229 2019.31 493.373 2020.22 493.536C2020.44 493.593 2020.67 493.605 2020.89 493.57C2021.12 493.535 2021.33 493.454 2021.53 493.332C2021.72 493.211 2021.88 493.051 2022.01 492.863C2022.14 492.674 2022.23 492.462 2022.27 492.239C2022.31 492.015 2022.31 491.785 2022.25 491.564C2022.2 491.342 2022.11 491.133 2021.97 490.95C2021.84 490.767 2021.67 490.613 2021.47 490.499C2021.27 490.385 2021.06 490.312 2020.83 490.286L2020.85 490.253Z" fill="#DE7360"/>
<path d="M1902.5 389.31C1804.35 446.698 1858.46 503.001 1871.35 518.79C1872.23 519.862 1851.78 482.299 1862.9 467.232C1862.63 485.633 1867.3 498.022 1867.3 498.022C1867.3 498.022 1884.09 492.354 1884.76 469.188C1891.84 479.354 1889.61 486.738 1889.61 486.738C1889.61 486.738 1941.49 491.327 1953.69 445.255C1962.59 454.017 1963.16 469.832 1963.16 469.832C1963.16 469.832 1986.32 447.199 1982.85 424.332C2010.64 455.818 2013.26 461.2 2013.26 461.2C2013.26 461.2 1985.54 340.761 1902.5 389.31Z" fill="#282E6B"/>
<path d="M1941.06 356.881C1933.41 352.227 1938.63 379.735 1938.63 379.735C1938.63 379.735 1932.51 347.885 1925.91 353.235C1919.31 358.584 1935.49 381.022 1935.49 381.022C1949.35 386.235 1948.7 361.535 1941.06 356.881Z" fill="#282E6B"/>
<path d="M1921.47 380.654L1973.41 453.454L1980.89 439.057C1980.89 439.057 2007.06 467.39 2012.74 466.09C2018.42 464.79 2026.23 468.768 2026.23 468.768C2026.23 468.768 2039.44 452.005 2004.5 406.186C1969.55 360.368 1921.47 380.654 1921.47 380.654Z" fill="#282E6B"/>
<path d="M1788.05 820.96C1770.55 789.844 1742.72 733.996 1742.72 733.996L1704.57 751.325C1704.57 751.325 1744.63 955.867 1800.27 969.725C1838 979.131 1855.89 940.586 1846.1 909.776C1836.7 880.214 1805.54 852.069 1788.05 820.96Z" fill="#FAB995"/>
<path d="M1835.65 775.486C1833.14 780.985 1830.17 787.621 1826.94 795.07C1805.65 844.217 1773.34 928.756 1789.16 956.881C1804.63 984.396 1832.92 980.112 1858.38 932.604C1871.89 907.403 1883.46 881.54 1892.64 859.082C1895.82 851.282 1898.72 843.905 1901.3 837.106C1911.05 811.496 1916.43 794.134 1916.43 794.134L1843.58 758.566C1843.58 758.566 1840.46 764.956 1835.65 775.486Z" fill="#FAB995"/>
<path d="M1899.55 689.427C1899.7 686.492 1900.14 683.58 1900.89 680.737C1901.55 678.247 1902.52 675.846 1903.76 673.587C1905.77 669.967 1908.45 666.756 1911.65 664.123L1881.53 650.473C1881.53 650.473 1867.15 676.655 1845.7 728.564C1845.26 729.623 1844.82 730.702 1844.4 731.814C1838.14 747.069 1831.3 764.47 1824.07 783.983C1834.11 791.982 1844.6 799.387 1855.5 806.161C1856.37 806.7 1857.25 807.253 1858.15 807.786C1874.36 817.731 1894.66 828.3 1915.24 834.156C1915.24 834.156 1920.07 821.358 1925.68 803.34C1916.08 745.49 1901.85 713.887 1899.79 695.225C1899.55 693.303 1899.47 691.363 1899.55 689.427Z" fill="#B6202C"/>
<path d="M1971.77 611.303C1980 609.191 1996.99 591.901 1999.35 550.203L1960.85 582.742L1971.77 611.303Z" fill="#2B2C20"/>
<path d="M2068.62 388.087C2075.53 371.388 2080.56 354.052 2088.5 337.731C2079.28 340.467 2069.9 342.619 2060.64 345.226C2067.14 331.94 2072.09 317.926 2077.76 304.276C2069.87 304.841 2061.94 305.231 2054.03 305.231C2050.02 305.231 2046.03 305.121 2042.04 304.9C2036.31 326.805 2031.54 349.021 2023.91 370.348C2034.03 369.581 2044.2 368.781 2054.33 368.398C2052.22 381.996 2044.85 396.348 2038.98 408.308C2046.66 407.177 2054.16 405.299 2061.81 403.492C2056.93 418.559 2047.98 433.58 2040.15 446.313C2059.65 433.846 2077.69 406.059 2093.92 386.793C2085.47 387.385 2077.11 388.607 2068.62 388.087ZM1801.01 377.589C1797.11 378.434 1793.17 379.156 1789.22 379.78C1781.42 381.015 1773.51 381.86 1765.63 382.529C1773.36 395.126 1780.44 408.204 1788.92 420.32C1779.37 419.183 1769.77 418.513 1760.23 417.252C1770.63 432.137 1778.28 448.452 1787.72 463.902C1779.42 465.729 1770.97 465.82 1762.53 466.502C1781.56 483.006 1803.68 507.661 1824.93 516.936C1815.21 505.574 1804.03 492.125 1796.86 478.001C1804.66 478.599 1812.4 479.301 1820.16 479.217C1812.49 468.277 1802.98 455.277 1798.78 442.167C1808.85 440.99 1819.03 440.217 1829.13 439.385C1818.25 419.54 1810.08 398.337 1801.01 377.589ZM1859.07 296.469C1856.17 297.119 1853.26 297.633 1850.34 298.094C1844.54 299.004 1838.69 299.635 1832.86 300.129C1838.58 309.456 1843.83 319.148 1850.11 328.118C1843.04 327.279 1835.92 326.778 1828.87 325.849C1836.56 336.899 1842.24 348.976 1849.22 360.396C1843.07 361.755 1836.82 361.82 1830.56 362.346C1844.66 374.573 1861.04 392.838 1876.77 399.709C1869.58 391.259 1861.29 381.327 1855.97 370.868C1861.77 371.31 1867.48 371.823 1873.22 371.765C1867.55 363.666 1860.5 354.04 1857.39 344.335C1864.85 343.464 1872.38 342.872 1879.87 342.274C1871.84 327.539 1865.79 311.822 1859.07 296.469ZM1985.17 321.267C1990.29 308.917 1994 296.079 1999.87 284.008C1993.06 286.023 1986.11 287.622 1979.26 289.553C1984.07 279.718 1987.71 269.345 1991.93 259.25C1986.08 259.666 1980.23 259.958 1974.38 259.958C1971.42 259.958 1968.46 259.876 1965.52 259.711C1961.27 275.922 1957.75 292.354 1952.11 308.136C1959.58 307.571 1967.11 306.979 1974.61 306.674C1973.05 316.736 1967.6 327.331 1963.25 336.204C1968.93 335.372 1974.49 333.974 1980.15 332.642C1976.55 343.783 1969.92 354.904 1964.13 364.329C1978.58 355.106 1991.91 334.54 2003.91 320.285C1997.63 320.74 1991.44 321.644 1985.17 321.267Z" fill="#6DE68B"/>
<path d="M1947.3 543.807C1943.77 542.943 1940.07 543.108 1936.63 544.284C1933.19 545.46 1930.15 547.597 1927.89 550.441C1925.63 553.286 1924.23 556.72 1923.85 560.337C1923.48 563.953 1924.15 567.601 1925.79 570.847C1929.4 563.356 1935.34 557.235 1942.72 553.395C1947.17 551.087 1952.1 549.833 1957.11 549.729C1954.53 546.792 1951.1 544.724 1947.3 543.807Z" fill="#D55454"/>
<path d="M1930.88 547.459C1927.78 549.934 1925.54 553.313 1924.47 557.125C1930.87 556.325 1936.9 553.4 1942.02 549.448C1943.85 548.122 1945.45 546.514 1946.78 544.684C1946.97 544.398 1947.15 544.112 1947.32 543.806C1944.48 543.109 1941.52 543.076 1938.67 543.71C1935.82 544.343 1933.15 545.626 1930.88 547.459Z" fill="white"/>
<path d="M1742.38 710.155C1735.88 698.676 1715.83 668.555 1715.83 668.555C1698.93 676.231 1714.84 703.336 1716.99 705.878L1658.63 686.631C1644.17 681.529 1637.47 693.58 1645.96 697.629L1645.51 697.948C1635.39 691.448 1626.94 706.58 1641.02 712.157C1629.97 709.284 1625.56 726.32 1647.1 732.151C1640.87 731.059 1636.59 740.022 1649.13 747.861C1649.13 747.861 1676.28 764.95 1700.84 773.575C1712.54 777.67 1720.53 777.839 1726.84 775.72C1735.11 772.002 1753.26 750.37 1750.03 726.522C1748.34 720.704 1745.76 715.183 1742.38 710.155Z" fill="#FAB995"/>
<path d="M1684.27 758.106L1686.96 758.158C1687.89 713.308 1700.02 706.158 1700.15 706.112L1698.93 703.727C1698.37 704.019 1685.25 711.137 1684.27 758.106Z" fill="#F5917E"/>
<path d="M1641.57 710.932L1640.52 713.402L1686.69 733.018L1687.74 730.547L1641.57 710.932Z" fill="#F5917E"/>
<path d="M1642.24 731.824L1685.43 750.512L1686.5 748.055L1643.31 729.367L1642.24 731.824Z" fill="#F5917E"/>
<path d="M1644.77 698.139L1691.56 717.327L1692.58 714.844L1645.79 695.656L1644.77 698.139Z" fill="#F5917E"/>
<path d="M1717.09 705.969L1716.01 705.286L1715.96 705.254L1717.09 705.969Z" fill="#F5917E"/>
<path d="M1717.09 705.968L1715.96 705.253H1716.01L1714.82 704.492C1714.73 704.642 1705.57 719.533 1725.05 737.363L1726.86 735.413C1709.12 719.176 1716.76 706.501 1717.09 705.968Z" fill="#F5917E"/>
<path d="M1043.9 1148C1021.73 1197.56 1015.61 1238.01 1015.57 1272.38C1015.52 1321.47 1030.3 1369.23 1042.33 1416.89C1055.61 1469.54 1063.35 1515.11 1070.31 1569.96C1104.02 1575.16 1145.78 1568.66 1179.89 1569.96C1191.01 1502.49 1206.09 1418.54 1213.09 1285.44C1185.05 1206.27 1082.78 1162.19 1043.9 1148ZM1330.68 1137.72C1305.71 1203.48 1260.25 1262.18 1213.09 1285.44C1213.09 1285.44 1263 1437.28 1333.73 1569.96C1385.49 1573.53 1421.39 1565.24 1460.08 1553.91C1445.25 1425.9 1409.13 1301.27 1353.2 1185.18C1345.75 1169.72 1337.98 1153.86 1330.68 1137.72Z" fill="#F7A48E"/>
<path d="M1330.16 1099.53H1042.82C999.271 1246.39 989.521 1308.99 1059.63 1551.33C1235.47 1574.12 1472.8 1530.93 1472.8 1530.93C1457.85 1429.65 1399.76 1296.32 1399.76 1296.32C1399.76 1296.32 1336.31 1169.82 1330.16 1099.53Z" fill="#BC584E"/>
<path d="M1109.63 720.348L1112.47 737.339L1202.27 742.143L1200.63 720.348C1200.63 720.348 1144.47 706.152 1109.63 720.348Z" fill="#785CA4"/>
<path d="M1555.2 716.397C1547.44 732.375 1541.72 749.261 1538.15 766.662C1547.17 765.362 1556.56 762.762 1565.58 761.423C1569.15 743.034 1573.14 722.858 1576.71 704.463H1576.56C1567.6 703.963 1559.04 708.474 1555.2 716.397Z" fill="#F7A48E"/>
<path d="M1440.19 939.458L1364.3 793.949C1348.48 763.542 1316.5 744.387 1281.54 744.387V813.566L1308.98 897.741L1380.24 1015.05C1408.6 1061.51 1500.65 1050.05 1516.94 998.355L1567.96 836.505L1479.5 797.115L1440.19 939.458Z" fill="white"/>
<path d="M1309.67 816.559L1276.06 826.562L1362.55 986.573L1362.89 920.871C1361.16 906.218 1356.24 892.121 1348.5 879.563L1309.67 816.559ZM1423.88 911.387C1422.78 933.58 1424.35 955.824 1428.56 977.642L1440.67 940.169L1424.04 908.209L1423.88 911.387Z" fill="#E4E3E0"/>
<path d="M1544.17 825.834L1567.96 836.507L1546.27 816.559L1544.17 825.834Z" fill="#E4E3E0"/>
<path d="M1193.62 690.396L1127.83 665.605L1127.39 670.701L1122.1 731.684L1115.3 732.542C1129.66 761.194 1149.04 783.736 1173.15 793.928L1186.27 830.328L1197.74 789.138L1201.34 739.829C1197.44 736.228 1193.6 727.986 1193.6 722.37L1193.62 690.396Z" fill="#FABA97"/>
<path d="M1127.39 670.701C1130.15 677.413 1133.57 683.835 1137.58 689.876C1145.17 701.076 1155.38 710.793 1167.75 716.643C1175.83 720.483 1184.68 722.437 1193.62 722.357V690.396L1127.83 665.605L1127.39 670.701Z" fill="#4F2548"/>
<path d="M1315.07 844.1C1299.39 812.796 1287.58 778.723 1281.54 744.383L1246.38 743.181L1213.11 742.05C1207.99 741.874 1204.82 743.012 1201.36 739.814L1197.76 789.123L1186.29 830.313L1173.17 793.913C1149.04 783.721 1129.66 761.179 1115.32 732.527L1048.17 741.029L1038.08 939.929L1072.68 1005.58C1080.25 1019.92 1083.99 1035.97 1083.53 1052.18C1083.08 1068.38 1078.44 1084.2 1070.08 1098.09C1069.78 1098.57 1069.54 1099.03 1069.25 1099.51H1314.86C1301.33 1062.8 1293.12 1025.09 1298.91 987.568C1326.93 972.975 1344.41 941.08 1341.26 910.218C1338.86 886.59 1325.77 865.472 1315.07 844.1Z" fill="#731F5B"/>
<path d="M1269.87 978.49C1259.99 976.644 1249.87 974.713 1241.27 969.611C1232.27 964.274 1224.85 955.473 1214.44 954.011C1206.37 952.854 1198.39 956.481 1191.54 960.823C1184.7 965.165 1178.29 970.378 1170.6 973.049C1160.65 976.501 1149.75 975.318 1139.2 975.838C1128.65 976.358 1116.13 978.841 1110.6 987.622H1298.89C1295.07 982.221 1279.26 980.238 1269.87 978.49Z" fill="#731F5B"/>
<path d="M1023.23 743.696L1003.63 884.746L1005.04 888.997C1035.07 979.555 1038.03 1076.35 1015.31 1168.91C996.333 1246.26 985.952 1330.69 985.848 1364.43C985.848 1364.43 1074.25 1379.23 1129.72 1364.43L1141.2 1147.98L1146.15 987.576L1104.68 733.875L1023.23 743.696Z" fill="white"/>
<path d="M1024.49 1122.09C1022.14 1137.78 1019.12 1153.41 1015.31 1168.89C1014.42 1172.54 1013.54 1176.21 1012.71 1179.89L1021.53 1185.74C1032.25 1192.81 1044.73 1196.74 1057.56 1197.08C1070.39 1197.43 1083.07 1194.17 1094.14 1187.69L1120.52 1172.2C1124.36 1176.88 1132.51 1179.61 1139.46 1181.18L1141.22 1147.96L1142.65 1101.66L1063.35 1137.69L1024.49 1122.09Z" fill="#E4E3E0"/>
<path d="M1081.18 794.702C1079.61 798.808 1079.52 803.331 1080.92 807.499C1082.31 811.666 1085.11 815.219 1088.84 817.549L1103.23 826.721L1081.46 863.296C1079.7 866.249 1078.78 869.629 1078.8 873.067C1078.83 876.506 1079.8 879.871 1081.61 882.796L1146.15 987.557L1104.68 733.855L1081.18 794.702Z" fill="#BAE1D9"/>
<path d="M1018.55 935.035C1018.55 935.035 1035.03 903.497 1047.8 850.711L1008.98 899.207L1018.55 935.035Z" fill="#E4E3E0"/>
<path d="M1109.63 720.348L1104.68 733.887L1144.06 847.91C1144.06 847.91 1156.36 811.51 1173.17 793.96C1173.17 793.928 1126.45 757.937 1109.63 720.348Z" fill="#21BECE"/>
<path d="M1341.6 982.675L1345.31 944.591C1347.85 918.396 1343.51 891.993 1332.72 867.989L1295.09 784.139L1281.51 744.398L1208.86 741.473L1284.79 981.323L1295.54 1062.79C1303.01 1119.15 1322.52 1173.24 1352.74 1221.39L1399.75 1296.38L1349.82 1131.35L1341.6 982.675Z" fill="white"/>
<path d="M1280.55 849.613L1248.59 822.723L1256.83 810.542C1259.31 806.885 1260.42 802.474 1259.98 798.078C1259.54 793.682 1257.57 789.582 1254.41 786.492L1208.86 741.473L1284.79 981.323L1287.39 864.589C1287.45 861.739 1286.86 858.913 1285.68 856.32C1284.49 853.727 1282.74 851.435 1280.55 849.613Z" fill="#BAE1D9"/>
<path d="M1202.59 725.703L1197.76 789.124L1186.29 830.314L1205.55 817.919V797.554L1224.81 837.516C1224.81 837.516 1223.59 797.125 1208.86 741.446L1202.59 725.703Z" fill="#21BECE"/>
<path d="M1111.84 730.344C1082.06 740.094 1061.72 766.159 1060.01 796.761L1059.58 804.496C1057.85 835.628 1060.12 866.853 1066.33 897.407L1075.99 944.857L1083.79 943.342L1074.13 895.892C1068.05 865.966 1065.82 835.384 1067.52 804.892L1067.95 797.164C1069.48 769.76 1087.7 746.418 1114.36 737.689L1119.13 736.129L1116.6 728.758L1111.84 730.344Z" fill="#F79835"/>
<path d="M1080.76 933.39C1066.35 934.554 1055.65 946.891 1056.85 960.944C1058.04 974.997 1070.69 985.429 1085.09 984.259C1099.49 983.089 1110.19 970.752 1108.99 956.706C1107.79 942.659 1095.15 932.22 1080.76 933.39Z" fill="#53A5DB"/>
<path d="M1081.3 939.828C1070.55 940.706 1062.55 949.916 1063.45 960.407C1064.35 970.898 1073.79 978.698 1084.54 977.821C1095.3 976.943 1103.29 967.733 1102.39 957.242C1101.5 946.751 1092.05 938.957 1081.3 939.828Z" fill="#6F82AB"/>
<path d="M1081.98 947.796C1080.52 947.896 1079.08 948.285 1077.77 948.94C1076.45 949.595 1075.28 950.504 1074.32 951.614C1073.35 952.725 1072.62 954.014 1072.15 955.409C1071.69 956.804 1071.51 958.277 1071.62 959.743C1071.91 962.704 1073.36 965.429 1075.65 967.324C1077.95 969.219 1080.9 970.129 1083.86 969.857C1085.31 969.734 1086.72 969.327 1088.01 968.658C1089.3 967.99 1090.45 967.074 1091.39 965.963C1092.32 964.851 1093.03 963.566 1093.47 962.18C1093.91 960.795 1094.08 959.336 1093.95 957.888C1093.83 956.439 1093.42 955.029 1092.75 953.738C1092.09 952.447 1091.17 951.3 1090.06 950.363C1088.95 949.426 1087.66 948.717 1086.28 948.277C1084.89 947.836 1083.43 947.673 1081.98 947.796ZM1252.55 780.707L1247.23 757.242C1242.18 734.947 1223.11 718.775 1199.78 716.994L1197.35 716.812L1196.7 724.56L1199.13 724.742C1218.94 726.257 1235.14 739.991 1239.43 758.919L1244.72 782.261C1223.84 788.293 1209.9 808.41 1212.87 830.12L1214.61 842.958L1222.51 841.937L1220.77 829.106C1218.09 809.32 1232.41 791.101 1252.69 788.481C1272.97 785.862 1291.64 799.837 1294.33 819.623L1296.06 832.454L1303.96 831.44L1302.22 818.602C1298.96 794.871 1276.79 778.062 1252.55 780.707Z" fill="#F79835"/>
<path d="M1229.59 911.831L1220.16 842.223L1216.21 842.73L1225.64 912.332C1227.01 922.42 1236.53 929.544 1246.88 928.211L1246.35 924.363C1238.18 925.423 1230.66 919.8 1229.59 911.831Z" fill="#53A5DB"/>
<path d="M1251.09 922.171L1246.88 923.243C1246.7 923.288 1246.54 923.396 1246.44 923.546C1246.33 923.697 1246.29 923.881 1246.31 924.062L1246.9 928.346C1246.92 928.528 1247.01 928.694 1247.15 928.814C1247.29 928.933 1247.47 928.998 1247.66 928.996H1252C1252.5 928.999 1252.99 928.898 1253.44 928.697C1253.89 928.497 1254.3 928.202 1254.63 927.833C1254.96 927.464 1255.2 927.029 1255.35 926.557C1255.5 926.085 1255.55 925.587 1255.49 925.096C1255.42 924.602 1255.24 924.128 1254.98 923.706C1254.71 923.283 1254.36 922.922 1253.94 922.646C1253.53 922.37 1253.06 922.184 1252.57 922.103C1252.07 922.021 1251.57 922.044 1251.09 922.171Z" fill="#F79835"/>
<path d="M1302.27 831.648L1298.32 832.162L1307.74 901.764C1308.82 909.726 1303.05 917.065 1294.89 918.118L1295.41 921.972C1305.75 920.672 1313.06 911.345 1311.66 901.25L1302.27 831.648Z" fill="#53A5DB"/>
<path d="M1294.09 917.172H1289.74C1289.24 917.17 1288.75 917.272 1288.3 917.473C1287.85 917.674 1287.45 917.969 1287.12 918.337C1286.79 918.706 1286.54 919.141 1286.39 919.612C1286.25 920.084 1286.2 920.582 1286.26 921.072C1286.33 921.564 1286.51 922.035 1286.78 922.453C1287.04 922.872 1287.4 923.23 1287.81 923.502C1288.23 923.775 1288.7 923.956 1289.19 924.035C1289.68 924.113 1290.18 924.087 1290.66 923.958L1294.87 922.886C1295.04 922.844 1295.2 922.737 1295.31 922.585C1295.41 922.434 1295.45 922.249 1295.43 922.067L1294.85 917.783C1294.82 917.607 1294.72 917.449 1294.58 917.338C1294.44 917.226 1294.26 917.167 1294.09 917.172Z" fill="#F79835"/>
<path d="M1181.66 657.555C1182.07 664.276 1186.28 671.146 1192.06 674.851C1194.98 676.692 1198.28 677.856 1201.71 678.258C1205.15 678.659 1208.62 678.288 1211.89 677.172C1219.79 674.403 1227.15 666.596 1231 659.316C1214.55 661.068 1197.94 660.475 1181.66 657.555Z" fill="white"/>
<path d="M1255.55 611.583L1214.14 531.789L1068.24 600.078C1068.24 600.078 1066.08 632.643 1058.56 660.067C1049.72 692.281 1032.02 713.601 1032.02 713.601C1049 729.76 1096.2 731.833 1096.2 731.833C1203.99 755.064 1260.33 731.274 1267.23 729.76C1274.14 728.245 1275.2 729.76 1259.27 701.985C1243.35 674.211 1255.55 613.098 1255.55 611.583Z" fill="#C60F58"/>
<path d="M1209.29 506.01C1185.02 482.76 1162.95 510.56 1133.83 527.415C1130.76 529.163 1119.07 521.565 1116.28 523.729C1086.91 546.479 1064.85 566.889 1069.48 603.679C1071.13 616.946 1093.64 666.346 1111.03 660.879L1255.15 629.894L1268.15 599.155C1276.45 564.075 1282.29 509.338 1209.29 506.01Z" fill="#C60F58"/>
<path d="M1118.73 736.692C1118.73 736.692 1134.11 750.206 1160.94 752.26C1193.26 754.736 1201.03 747.157 1201.03 747.157L1204.5 683.288L1205.98 649.17L1128.29 633.992L1118.73 736.692Z" fill="#FABA97"/>
<path d="M1201.36 742.864L1204.5 683.305L1142.65 686.444L1201.36 742.864Z" fill="#F5927E"/>
<path d="M1254.54 614.236L1254.09 581.905C1253.88 568.97 1248.55 556.646 1239.26 547.641C1229.97 538.636 1217.49 533.685 1204.55 533.876L1134.21 534.936L1136.25 674.192C1136.3 677.232 1137.25 680.19 1138.97 682.694C1140.7 685.199 1143.12 687.138 1145.94 688.271L1203.75 711.391C1206.17 712.35 1208.8 712.683 1211.38 712.361C1213.97 712.038 1216.43 711.07 1218.55 709.545L1249.1 687.38C1251.1 685.935 1252.72 684.029 1253.83 681.825C1254.95 679.62 1255.51 677.181 1255.48 674.712L1255.4 669.934L1254.54 614.236Z" fill="#FABA97"/>
<path opacity="0.24" d="M1239.3 642.671C1238.27 652.96 1244.83 662.32 1254.56 665.687L1254.73 624.035C1246.45 626.661 1240.2 633.759 1239.3 642.671Z" fill="#F08372"/>
<path d="M1224.38 592.108C1224.21 591.629 1223.86 591.232 1223.41 590.997C1222.95 590.763 1222.43 590.707 1221.94 590.841C1221.45 590.976 1221.02 591.29 1220.75 591.723C1220.48 592.155 1220.38 592.673 1220.48 593.174L1233.7 642.022L1214.54 648.782C1214.11 648.944 1213.75 649.246 1213.52 649.637C1213.29 650.028 1213.2 650.486 1213.26 650.938C1213.32 651.389 1213.53 651.807 1213.85 652.123C1214.18 652.44 1214.6 652.637 1215.06 652.682C1215.34 652.706 1215.62 652.668 1215.89 652.571L1236.83 645.187C1237.31 645.023 1237.72 644.68 1237.96 644.227C1238.2 643.774 1238.26 643.245 1238.13 642.75L1224.38 592.108Z" fill="#DE7360"/>
<path d="M1123.85 610.07C1118.25 610.158 1112.81 611.903 1108.2 615.085C1103.6 618.267 1100.04 622.742 1097.98 627.946C1095.92 633.149 1095.44 638.848 1096.62 644.32C1097.79 649.792 1100.57 654.794 1104.58 658.691C1108.6 662.589 1113.68 665.207 1119.19 666.217C1124.7 667.226 1130.38 666.581 1135.52 664.363C1140.65 662.144 1145.02 658.452 1148.06 653.752C1151.1 649.053 1152.68 643.558 1152.6 637.961C1152.54 634.242 1151.76 630.57 1150.28 627.156C1148.81 623.741 1146.67 620.65 1144 618.06C1141.33 615.47 1138.18 613.431 1134.72 612.06C1131.26 610.689 1127.57 610.013 1123.85 610.07Z" fill="#FABA97"/>
<path d="M1233.24 579.352C1232.19 584.825 1252.09 588.361 1254.4 582.81C1258.01 574.022 1235 570.271 1233.24 579.352ZM1170.37 582.53C1173.15 587.847 1192.67 582.53 1191.13 577.168C1188.58 568.282 1165.98 574.1 1170.37 582.53Z" fill="#281C1C"/>
<path opacity="0.24" d="M1172.3 622.073C1168.08 621.753 1163.87 622.692 1160.18 624.769C1156.5 626.846 1153.51 629.968 1151.6 633.742C1149.7 637.515 1148.95 641.77 1149.46 645.968C1149.96 650.167 1151.71 654.12 1154.46 657.328C1157.22 660.537 1160.86 662.856 1164.93 663.994C1169.01 665.131 1173.33 665.035 1177.35 663.718C1181.36 662.402 1184.9 659.923 1187.51 656.595C1190.12 653.268 1191.69 649.241 1192.01 645.024C1192.44 639.368 1190.6 633.773 1186.91 629.469C1183.21 625.165 1177.96 622.505 1172.3 622.073Z" fill="#F08372"/>
<path d="M1191.62 607.89C1188.52 607.936 1186.06 612.284 1186.14 617.64C1186.22 622.996 1188.8 627.247 1191.9 627.202C1195.01 627.156 1197.46 622.801 1197.38 617.452C1197.31 612.102 1194.7 607.845 1191.62 607.89ZM1243.89 607.461C1240.9 607.5 1238.52 611.706 1238.6 616.841C1238.68 621.976 1241.16 626.11 1244.17 626.071C1247.17 626.032 1249.53 621.82 1249.45 616.685C1249.37 611.55 1246.89 607.416 1243.89 607.461Z" fill="#281C1C"/>
<path d="M1116.48 629.061L1114.43 631.113L1130.81 647.454L1132.86 645.402L1116.48 629.061Z" fill="#F5927E"/>
<path d="M1115.41 644.277L1117.41 646.357L1124.67 639.369L1122.65 637.289L1115.41 644.277Z" fill="#F5927E"/>
<path d="M1208.66 506.516C1194.27 501.069 1178.42 498.859 1163.31 501.777C1145.76 505.183 1129.83 515.492 1118.4 529.253C1106.98 543.013 1099.8 560.037 1096.55 577.671C1092.21 601.383 1123.85 616.151 1137.87 635.794C1137.61 625.518 1139.3 614.065 1139.3 612.888C1145.24 608.988 1145.7 611.588 1149.78 605.842C1154.52 599.115 1150.06 579.79 1155.51 573.68C1159.85 568.773 1171.05 569.936 1187.04 566.485C1219.91 559.413 1223.5 540.348 1223.5 540.348C1223.5 540.348 1250.98 546.198 1261.44 616.762C1260.23 590.574 1258.49 571.204 1246.84 548.642C1235.19 526.081 1232.45 515.538 1208.66 506.516Z" fill="#C60F58"/>
<path d="M1231.39 666.534C1231.24 666.625 1221.37 672.839 1200.75 666.229C1200.53 666.146 1200.3 666.108 1200.06 666.119C1199.83 666.129 1199.6 666.187 1199.39 666.289C1199.18 666.391 1198.99 666.535 1198.84 666.712C1198.68 666.889 1198.57 667.096 1198.49 667.319C1198.42 667.542 1198.4 667.778 1198.42 668.011C1198.44 668.245 1198.51 668.471 1198.62 668.677C1198.74 668.883 1198.89 669.063 1199.07 669.208C1199.26 669.352 1199.47 669.458 1199.7 669.518C1207.24 671.936 1213.47 672.768 1218.43 672.768C1228.18 672.768 1233.02 669.615 1233.32 669.414C1233.7 669.155 1233.96 668.756 1234.04 668.305C1234.13 667.854 1234.03 667.388 1233.77 667.009C1233.51 666.629 1233.11 666.368 1232.66 666.283C1232.21 666.198 1231.75 666.295 1231.37 666.554L1231.39 666.534Z" fill="#DE7360"/>
<path d="M1098 506.531C1038.48 556.991 1076.55 625.423 1076.55 625.423L1208.67 506.518C1208.67 506.518 1157.51 456.072 1098 506.531Z" fill="#C60F58"/>
<path d="M1098 506.531C1094.01 509.897 1090.28 513.549 1086.82 517.457C1095.67 507.831 1118.07 498.698 1118.07 498.698C1153.44 479.244 1190.17 506.635 1199.68 514.604L1209.29 506.011C1209.29 506.011 1157.51 456.071 1098 506.531ZM1209.77 505.952L1199.68 514.623C1233.31 508.123 1264.78 532.173 1264.78 532.173C1249.4 505.452 1209.77 505.952 1209.77 505.952Z" fill="#E51765"/>
<path d="M1293.45 1099.71L1144.83 1024.96C1144.69 1024.89 1144.53 1024.84 1144.37 1024.83C1144.21 1024.82 1144.05 1024.84 1143.9 1024.89C1143.74 1024.94 1143.6 1025.02 1143.48 1025.13C1143.36 1025.23 1143.26 1025.36 1143.19 1025.51L1032.95 1244.23C1032.8 1244.52 1032.77 1244.86 1032.88 1245.17C1032.98 1245.48 1033.2 1245.73 1033.49 1245.88L1182.1 1320.63C1182.25 1320.7 1182.4 1320.75 1182.56 1320.76C1182.72 1320.77 1182.89 1320.75 1183.04 1320.7C1183.19 1320.65 1183.33 1320.57 1183.45 1320.46C1183.58 1320.36 1183.68 1320.23 1183.75 1320.09L1293.99 1101.36C1294.14 1101.07 1294.16 1100.73 1294.06 1100.42C1293.96 1100.11 1293.74 1099.86 1293.45 1099.71Z" fill="#2DA5DE"/>
<path opacity="0.18" d="M1146.6 1163.68C1128.99 1139.08 1126.45 1108.83 1133.51 1079.92C1137.14 1065.03 1144.2 1044.1 1156.21 1030.71L1152.11 1028.65C1149.88 1027.53 1147.31 1027.34 1144.95 1028.12C1142.59 1028.9 1140.63 1030.58 1139.51 1032.8L1036.59 1236.98C1035.48 1239.2 1035.29 1241.77 1036.07 1244.13C1036.85 1246.49 1038.53 1248.45 1040.75 1249.57L1174.81 1316.97C1177.03 1318.09 1179.61 1318.27 1181.97 1317.49C1184.33 1316.71 1186.28 1315.03 1187.4 1312.81L1188.43 1310.76L1186.45 1309.73C1173.78 1303.31 1146.7 1294.38 1140.65 1279.22C1130.11 1252.85 1191.76 1246.87 1219.84 1248.47L1237.07 1214.26C1225.47 1211.98 1214.15 1208.12 1208.1 1206.13C1184.16 1198.26 1161.47 1184.43 1146.6 1163.68Z" fill="#009C9E"/>
<path d="M1237.11 1083.18L1193.79 1061.4C1191.57 1060.28 1189 1060.09 1186.64 1060.87C1184.28 1061.65 1182.33 1063.33 1181.21 1065.55C1180.66 1066.65 1180.33 1067.85 1180.23 1069.08C1180.14 1070.3 1180.29 1071.54 1180.68 1072.71C1181.07 1073.88 1181.68 1074.96 1182.49 1075.89C1183.29 1076.82 1184.27 1077.59 1185.37 1078.14L1228.7 1099.93C1230.92 1101.05 1233.49 1101.24 1235.85 1100.46C1238.21 1099.69 1240.17 1098 1241.29 1095.78C1242.41 1093.56 1242.61 1090.99 1241.83 1088.62C1241.05 1086.26 1239.37 1084.31 1237.15 1083.18H1237.11Z" fill="#4B5F90"/>
<path d="M1193.7 1061.36C1191.48 1060.32 1188.94 1060.18 1186.63 1060.99C1184.31 1061.79 1182.41 1063.48 1181.32 1065.67C1180.23 1067.87 1180.04 1070.4 1180.8 1072.73C1181.56 1075.06 1183.2 1077.01 1185.37 1078.14L1228.68 1099.92C1230.28 1100.72 1232.08 1101.05 1233.86 1100.86C1235.64 1100.67 1237.33 1099.98 1238.73 1098.86C1215.96 1094.91 1188.78 1079.3 1193.7 1061.36Z" fill="#23436F"/>
<path d="M1194.8 1068.59C1194.12 1068.46 1193.42 1068.52 1192.78 1068.78C1192.15 1069.05 1191.6 1069.49 1191.22 1070.06C1190.83 1070.63 1190.63 1071.31 1190.62 1072C1190.62 1072.68 1190.82 1073.36 1191.2 1073.93C1191.58 1074.51 1192.13 1074.96 1192.76 1075.22C1193.4 1075.49 1194.1 1075.56 1194.77 1075.43C1195.45 1075.3 1196.07 1074.97 1196.56 1074.48C1197.05 1074 1197.38 1073.38 1197.52 1072.7C1197.7 1071.8 1197.52 1070.85 1197.01 1070.09C1196.5 1069.32 1195.7 1068.78 1194.8 1068.59ZM1228.34 1085.41C1227.67 1085.28 1226.97 1085.35 1226.33 1085.61C1225.69 1085.87 1225.15 1086.32 1224.77 1086.89C1224.38 1087.46 1224.18 1088.13 1224.18 1088.82C1224.17 1089.51 1224.38 1090.19 1224.76 1090.76C1225.14 1091.33 1225.68 1091.78 1226.32 1092.05C1226.95 1092.31 1227.65 1092.38 1228.33 1092.25C1229 1092.12 1229.63 1091.79 1230.11 1091.3C1230.6 1090.82 1230.94 1090.2 1231.07 1089.52C1231.17 1089.07 1231.17 1088.61 1231.08 1088.16C1230.99 1087.71 1230.81 1087.28 1230.56 1086.9C1230.31 1086.52 1229.98 1086.19 1229.6 1085.94C1229.22 1085.68 1228.79 1085.5 1228.34 1085.41Z" fill="#21BECE"/>
<path d="M1008.98 899.208C1068.66 861.176 1054.66 780.212 1023.74 744.28L1023.23 743.695C1006.4 746.297 991.192 755.235 980.733 768.681L812.578 986.327C795.028 1009.01 801.444 1041.5 826.339 1056.23L987.597 1174.53L1053.94 1090.61L936 996.357L1008.98 899.208Z" fill="white"/>
<path d="M1126.32 1096.47C1109.71 1105.53 1092.53 1113.5 1074.9 1120.34L1042.82 1099.54L1008.1 1149.47L1043.07 1159.22C1050.35 1167.96 1067.53 1165.54 1079.01 1164.42C1090.49 1163.31 1103.6 1155.64 1113.13 1149.37C1120.28 1157.82 1129.31 1173.37 1140.19 1167.37C1134.85 1158.53 1129.52 1149.69 1124.19 1140.84L1142.25 1160.88C1144.58 1163.44 1147.58 1165.31 1150.91 1166.27C1154.23 1167.24 1157.76 1167.27 1161.1 1166.35C1154.08 1154.86 1147.05 1143.35 1140.03 1131.85L1156.28 1154.5C1157.52 1156.21 1159.1 1157.65 1160.92 1158.73C1162.73 1159.81 1164.75 1160.52 1166.85 1160.8C1168.94 1161.08 1171.07 1160.94 1173.11 1160.38C1175.15 1159.82 1177.05 1158.85 1178.7 1157.53C1169.29 1143.97 1156.96 1132.56 1148.8 1118.1C1156.93 1124.92 1165.6 1131.75 1173.72 1138.57C1176.81 1141.17 1180.11 1143.85 1184.12 1144.46C1188.14 1145.06 1192.93 1142.6 1193.16 1138.64C1179.07 1125.54 1164.43 1112.45 1150.12 1099.36C1146.95 1096.46 1142.95 1094.62 1138.68 1094.1C1134.41 1093.58 1130.09 1094.41 1126.32 1096.47Z" fill="#FBC9AD"/>
<path d="M753.863 1476.34C755.235 1468.41 758.316 1460.8 759.063 1452.79C760.526 1436.78 749.723 1428.25 735.384 1424.62C726.667 1422.43 717.437 1421.48 709.598 1417.08C695.136 1408.98 693.407 1393.64 689.26 1379.25C680.758 1349.75 646.659 1357.8 623.681 1347.29C600.099 1336.5 565.61 1326.93 567.417 1365.17C568.717 1392.75 586.319 1410.84 609.05 1424.05C629.518 1435.95 660.861 1441.09 655.655 1470.85C653.932 1480.7 650.877 1491.45 655.694 1500.22C661.459 1510.72 675.194 1512.87 686.621 1516.53C702.977 1521.8 717.206 1532.19 727.213 1546.17H727.272L770.113 1525.85C763.632 1519.51 758.772 1511.7 755.944 1503.08C753.116 1494.46 752.402 1485.29 753.863 1476.34Z" fill="#42BC61"/>
<path d="M687.479 1436.09C674.595 1421.24 660.832 1407.17 646.263 1393.96C638.976 1387.38 631.475 1381.03 623.727 1375.02C619.857 1371.99 615.921 1369.06 611.917 1366.24C607.906 1363.42 603.844 1360.67 599.632 1358.17C603.733 1360.84 607.679 1363.76 611.559 1366.73C615.44 1369.7 619.242 1372.78 622.967 1375.95C630.442 1382.25 637.65 1388.86 644.625 1395.7C658.537 1409.39 671.619 1423.9 683.8 1439.16C695.947 1454.39 707.27 1470.26 717.724 1486.7C728.176 1503.11 737.798 1520 746.59 1537.36L755.04 1532.87C745.403 1515.64 734.955 1498.92 723.697 1482.72C712.462 1466.54 700.372 1450.98 687.479 1436.09Z" fill="#6DE68B"/>
<path d="M838.324 1359.72C827.391 1337.68 838.136 1317.44 845.136 1296.3C859.436 1253.02 810.907 1234.34 791.55 1202.22C771.686 1169.27 737.432 1128.66 707.564 1177.04C686.017 1211.96 692.406 1248.87 709.189 1284.1C724.308 1315.82 758.413 1348.37 727.044 1380.53C716.645 1391.17 703.898 1401.78 702.442 1416.57C700.7 1434.27 715.747 1448.42 726.68 1462.44C742.309 1482.61 751.039 1507.27 751.582 1532.77H751.68L821.23 1543.74C815.77 1517.45 824.148 1488.69 842.868 1469.43C851.201 1460.86 861.367 1454.11 868.991 1444.9C884.214 1426.49 878.13 1406.99 863.59 1390.54C854.75 1380.56 844.246 1371.67 838.324 1359.72Z" fill="#6DE68B"/>
<path d="M800.28 1387.57C797.372 1362.25 792.946 1337.12 787.027 1312.32C784.043 1299.97 780.663 1287.67 776.77 1275.56C774.846 1269.49 772.772 1263.48 770.549 1257.53C768.326 1251.58 765.999 1245.66 763.314 1239.91C765.752 1245.76 767.864 1251.76 769.814 1257.79C771.764 1263.81 773.604 1269.88 775.274 1275.99C778.661 1288.2 781.521 1300.55 783.984 1312.97C788.851 1337.81 792.224 1362.91 794.086 1388.15C795.933 1413.34 796.43 1438.61 795.574 1463.86C794.738 1489.08 792.666 1514.2 789.36 1539.21L801.71 1540.59C804.011 1515.1 805.073 1489.56 804.895 1463.97C804.72 1438.44 803.18 1412.94 800.28 1387.57Z" fill="#45BC62"/>
<path d="M990.496 1365.38C969.111 1374.17 938.203 1365.61 929.396 1392.29C925.093 1405.29 922.967 1419.28 909.454 1426.18C902.128 1429.92 893.652 1430.47 885.599 1432.17C872.358 1434.98 862.199 1442.4 862.946 1457.1C863.33 1464.45 865.884 1471.52 866.846 1478.82C867.864 1487.06 866.887 1495.42 863.996 1503.21C861.106 1510.99 856.388 1517.96 850.239 1523.54L888.706 1543.62L888.758 1543.66C898.406 1531.23 911.79 1522.23 926.939 1517.98C937.508 1515.04 950.157 1513.56 955.805 1504.16C960.518 1496.3 958.1 1486.37 956.878 1477.29C953.166 1449.87 982.02 1446.27 1001.16 1436.11C1022.42 1424.82 1039.15 1408.9 1041.33 1383.71C1044.34 1348.81 1012.45 1356.37 990.496 1365.38Z" fill="#68E487"/>
<path d="M970.866 1407.07C964.483 1411.62 958.295 1416.47 952.27 1421.51C940.226 1431.61 928.798 1442.43 918.047 1453.9C907.283 1465.39 897.14 1477.45 887.66 1490.03C878.174 1502.59 869.312 1515.62 861.075 1529.12L867.698 1532.97C875.251 1519.4 883.458 1506.21 892.32 1493.39C901.187 1480.58 910.734 1468.25 920.92 1456.46C931.121 1444.65 942.019 1433.46 953.557 1422.95C959.342 1417.71 965.302 1412.64 971.464 1407.84C974.541 1405.42 977.674 1403.08 980.863 1400.83C984.061 1398.57 987.298 1396.36 990.659 1394.33C987.22 1396.19 983.886 1398.27 980.597 1400.4C977.308 1402.53 974.045 1404.79 970.866 1407.07ZM869.05 1280.27C850.675 1301.76 812.234 1309.65 817.531 1343.62C820.131 1360.21 825.598 1376.59 814.736 1391.64C808.847 1399.79 799.923 1405.11 792.11 1411.45C779.253 1421.89 772.311 1435.65 781.352 1451.22C785.902 1459.02 787.976 1466.29 793.117 1473.7C804.655 1490.35 796.439 1517.39 789.126 1536.27C806.826 1536.42 840.041 1530.94 857.747 1531.07H857.818C861.386 1512.16 870.933 1494.9 885.053 1481.83C894.927 1472.73 907.875 1464.09 908.772 1450.7C909.526 1439.52 901.342 1430.04 894.94 1420.85C875.583 1393.05 904.995 1373.05 920.166 1351.3C937.021 1327.17 946.348 1300.5 934.648 1271.86C918.411 1232.22 887.9 1258.22 869.05 1280.27Z" fill="#56CF74"/>
<path d="M881.348 1315.16C876.467 1324.63 871.981 1334.31 867.815 1344.13C859.516 1363.8 852.401 1383.95 846.508 1404.47C840.633 1425.03 835.86 1445.89 832.208 1466.96C828.529 1488.04 825.89 1509.28 824.291 1530.66L834.691 1531.22C835.415 1510.13 837.159 1489.1 839.923 1468.12C842.693 1447.14 846.581 1426.33 851.571 1405.77C856.584 1385.18 862.827 1364.91 870.266 1345.06C874.003 1335.14 878.066 1325.33 882.551 1315.7C884.774 1310.88 887.113 1306.12 889.57 1301.4C892.034 1296.7 894.582 1292.03 897.37 1287.52C894.367 1291.91 891.625 1296.48 888.966 1301.09C886.308 1305.71 883.773 1310.43 881.348 1315.16Z" fill="#6DE68B"/>
<path d="M912.099 1513.02H687.407C681.336 1513.02 676.656 1519.24 677.456 1526.22L700.739 1728.64C703.118 1749.32 718.289 1764.76 736.268 1764.76H867.1C885.365 1764.76 900.705 1748.82 902.726 1727.71L922.07 1526.02C922.733 1519.09 918.079 1513.02 912.099 1513.02Z" fill="#21BECE"/>
<path d="M689.969 1635.04H911.619L913.588 1616.84L688.266 1617.44L689.969 1635.04Z" fill="#6ECBD7"/>
<path d="M686.445 1607.36C687.264 1607.97 914.225 1606.45 914.225 1606.45L915.31 1598L686.172 1598.91L686.445 1607.36Z" fill="#6ECBD7"/>
<path d="M1517.48 1427.87V1768.28C1517.47 1779.02 1513.19 1789.31 1505.6 1796.9C1498 1804.49 1487.71 1808.75 1476.97 1808.75H1548.98C1559.72 1808.75 1570.02 1804.49 1577.62 1796.9C1585.21 1789.31 1589.49 1779.02 1589.5 1768.28V1427.87H1517.48Z" fill="#95E2A8"/>
<path d="M1591.92 1341.46H1519.9C1522.3 1341.46 1524.68 1341.93 1526.89 1342.85C1529.11 1343.76 1531.13 1345.11 1532.82 1346.8C1534.52 1348.5 1535.87 1350.51 1536.79 1352.73C1537.71 1354.95 1538.18 1357.32 1538.18 1359.72V1396.93C1538.18 1401.77 1536.25 1406.42 1532.82 1409.84C1529.39 1413.27 1524.75 1415.19 1519.9 1415.19H1591.92C1596.76 1415.19 1601.41 1413.27 1604.84 1409.84C1608.27 1406.42 1610.19 1401.77 1610.2 1396.93V1359.72C1610.2 1354.88 1608.27 1350.23 1604.84 1346.8C1601.41 1343.38 1596.76 1341.46 1591.92 1341.46Z" fill="#21923D"/>
<path d="M1339.24 1521.36L1351.3 1658.16L1339.24 1739.73V1768.27C1339.25 1779.01 1343.52 1789.3 1351.12 1796.89C1358.72 1804.48 1369.01 1808.74 1379.75 1808.74H1487.77C1498.51 1808.74 1508.81 1804.48 1516.4 1796.89C1524 1789.3 1528.27 1779.01 1528.28 1768.27V1427.87H1339.24V1521.36ZM1530.7 1341.46H1336.82C1331.97 1341.46 1327.32 1343.38 1323.89 1346.8C1320.46 1350.23 1318.53 1354.88 1318.53 1359.72V1396.93C1318.54 1401.77 1320.47 1406.42 1323.89 1409.84C1327.32 1413.27 1331.97 1415.19 1336.82 1415.19H1530.7C1533.1 1415.19 1535.47 1414.72 1537.69 1413.8C1539.91 1412.88 1541.92 1411.54 1543.62 1409.84C1545.32 1408.15 1546.67 1406.14 1547.59 1403.92C1548.51 1401.7 1548.98 1399.33 1548.98 1396.93V1359.72C1548.98 1357.32 1548.51 1354.95 1547.59 1352.73C1546.67 1350.51 1545.32 1348.5 1543.62 1346.8C1541.93 1345.11 1539.91 1343.76 1537.69 1342.84C1535.47 1341.93 1533.1 1341.46 1530.7 1341.46Z" fill="#85EE9F"/>
<path d="M1599.57 1415.18H1329.17C1328.26 1415.18 1327.53 1415.91 1327.53 1416.82V1436.03C1327.53 1436.93 1328.26 1437.66 1329.17 1437.66H1599.57C1600.47 1437.66 1601.2 1436.93 1601.2 1436.03V1416.82C1601.2 1415.91 1600.47 1415.18 1599.57 1415.18Z" fill="#95E2A8"/>
<path d="M1589.5 1437.66H1339.24V1460.14H1589.5V1437.66Z" fill="#3DBA5C"/>
<path d="M1345.27 1363.04C1343.67 1363.04 1342.14 1363.67 1341.01 1364.8C1339.88 1365.93 1339.24 1367.46 1339.24 1369.06V1415.21H1351.3V1369.06C1351.3 1368.27 1351.14 1367.48 1350.84 1366.75C1350.54 1366.02 1350.09 1365.36 1349.53 1364.8C1348.97 1364.24 1348.31 1363.79 1347.57 1363.49C1346.84 1363.19 1346.06 1363.03 1345.27 1363.04ZM1374.37 1363.04C1372.77 1363.04 1371.24 1363.67 1370.11 1364.8C1368.98 1365.93 1368.34 1367.46 1368.34 1369.06V1415.21H1380.4V1369.06C1380.4 1368.27 1380.25 1367.48 1379.95 1366.75C1379.64 1366.02 1379.2 1365.36 1378.64 1364.8C1378.08 1364.24 1377.41 1363.79 1376.68 1363.49C1375.95 1363.19 1375.16 1363.03 1374.37 1363.04ZM1403.48 1363.04C1402.69 1363.03 1401.9 1363.19 1401.17 1363.49C1400.44 1363.79 1399.78 1364.24 1399.22 1364.8C1398.65 1365.36 1398.21 1366.02 1397.91 1366.75C1397.6 1367.48 1397.45 1368.27 1397.45 1369.06V1415.21H1409.51V1369.06C1409.51 1367.46 1408.87 1365.93 1407.74 1364.8C1406.61 1363.67 1405.08 1363.04 1403.48 1363.04ZM1432.6 1363.04C1431 1363.04 1429.47 1363.67 1428.34 1364.8C1427.21 1365.93 1426.57 1367.46 1426.57 1369.06V1415.21H1438.63V1369.06C1438.63 1368.27 1438.48 1367.48 1438.17 1366.75C1437.87 1366.02 1437.43 1365.36 1436.86 1364.8C1436.3 1364.24 1435.64 1363.79 1434.91 1363.49C1434.18 1363.19 1433.39 1363.03 1432.6 1363.04ZM1461.69 1363.04C1460.09 1363.04 1458.56 1363.67 1457.42 1364.8C1456.29 1365.93 1455.66 1367.46 1455.66 1369.06V1415.21H1467.7V1369.06C1467.7 1367.46 1467.07 1365.93 1465.94 1364.8C1464.81 1363.67 1463.28 1363.04 1461.69 1363.04ZM1490.79 1363.04C1490 1363.03 1489.22 1363.19 1488.49 1363.49C1487.75 1363.79 1487.09 1364.24 1486.53 1364.8C1485.97 1365.36 1485.53 1366.02 1485.22 1366.75C1484.92 1367.48 1484.76 1368.27 1484.76 1369.06V1415.21H1496.83V1369.06C1496.82 1367.46 1496.19 1365.93 1495.06 1364.8C1493.93 1363.67 1492.39 1363.04 1490.79 1363.04ZM1519.9 1363.04C1519.11 1363.03 1518.33 1363.19 1517.59 1363.49C1516.86 1363.79 1516.2 1364.24 1515.64 1364.8C1515.08 1365.36 1514.63 1366.02 1514.33 1366.75C1514.03 1367.48 1513.87 1368.27 1513.87 1369.06V1415.21H1525.93V1369.06C1525.93 1367.46 1525.29 1365.93 1524.16 1364.8C1523.03 1363.67 1521.5 1363.04 1519.9 1363.04Z" fill="#3DBA5C"/>
<path d="M1480.82 1521.36H1339.24V1739.72H1480.82C1482.92 1739.72 1485 1739.31 1486.94 1738.51C1488.88 1737.71 1490.64 1736.53 1492.12 1735.05C1493.61 1733.57 1494.78 1731.81 1495.59 1729.87C1496.39 1727.93 1496.81 1725.86 1496.81 1723.76V1537.33C1496.81 1535.23 1496.39 1533.15 1495.59 1531.21C1494.78 1529.27 1493.61 1527.51 1492.12 1526.03C1490.64 1524.55 1488.88 1523.37 1486.94 1522.57C1485 1521.77 1482.92 1521.35 1480.82 1521.36Z" fill="#D7D7D8"/>
<path d="M1382.93 1478.57C1379.06 1478.58 1375.36 1480.12 1372.62 1482.86C1369.88 1485.59 1368.34 1489.3 1368.33 1493.17V1521.38H1397.54V1493.17C1397.53 1489.3 1395.98 1485.59 1393.25 1482.86C1390.51 1480.12 1386.8 1478.58 1382.93 1478.57Z" fill="#65D681"/>
<path d="M1368.33 1702.93C1368.33 1706.8 1369.87 1710.51 1372.61 1713.25C1375.35 1715.99 1379.06 1717.53 1382.93 1717.53C1386.81 1717.53 1390.52 1715.99 1393.26 1713.25C1396 1710.51 1397.54 1706.8 1397.54 1702.93V1521.36H1368.33V1702.93Z" fill="white"/>
<path d="M1749.36 1532.05L1734.91 1526.43C1732.26 1525.4 1729.99 1523.59 1728.38 1521.25C1726.78 1518.91 1725.92 1516.13 1725.91 1513.29V1482.34H1597.57V1513.29C1597.57 1516.13 1596.71 1518.91 1595.1 1521.25C1593.5 1523.6 1591.22 1525.4 1588.57 1526.43L1574.12 1532.05C1566 1535.2 1559.03 1540.73 1554.12 1547.91C1549.2 1555.09 1546.57 1563.59 1546.56 1572.3V1791.03C1546.57 1794.88 1547.33 1798.7 1548.8 1802.25C1550.28 1805.81 1552.44 1809.04 1555.16 1811.76C1557.89 1814.48 1561.12 1816.63 1564.68 1818.11C1568.24 1819.58 1572.05 1820.33 1575.9 1820.33H1747.59C1751.44 1820.33 1755.25 1819.58 1758.81 1818.11C1762.37 1816.63 1765.6 1814.48 1768.32 1811.76C1771.05 1809.04 1773.21 1805.81 1774.69 1802.25C1776.16 1798.7 1776.92 1794.88 1776.92 1791.03V1572.3C1776.92 1563.59 1774.29 1555.09 1769.37 1547.91C1764.45 1540.73 1757.48 1535.2 1749.36 1532.05Z" fill="#80C892"/>
<path d="M1743.54 1547.01L1729.07 1541.39C1723.39 1539.21 1718.51 1535.36 1715.08 1530.34C1711.64 1525.32 1709.82 1519.37 1709.84 1513.29V1498.39H1674.61V1513.29C1674.59 1519.37 1676.41 1525.32 1679.85 1530.34C1683.28 1535.35 1688.16 1539.21 1693.84 1541.39L1708.31 1547.01C1713.42 1548.97 1717.81 1552.44 1720.91 1556.96C1724 1561.47 1725.64 1566.82 1725.62 1572.3V1791.04C1725.61 1794.55 1724.21 1797.92 1721.73 1800.4C1719.24 1802.88 1715.87 1804.28 1712.36 1804.28H1747.58C1751.1 1804.28 1754.47 1802.88 1756.96 1800.4C1759.44 1797.92 1760.84 1794.55 1760.85 1791.04V1572.3C1760.87 1566.83 1759.23 1561.48 1756.13 1556.96C1753.04 1552.44 1748.65 1548.97 1743.54 1547.01Z" fill="#CBFCD7"/>
<path d="M1708.31 1547.01L1693.84 1541.39C1688.16 1539.21 1683.28 1535.35 1679.85 1530.34C1676.41 1525.32 1674.59 1519.37 1674.61 1513.29V1498.39H1613.64V1513.29C1613.67 1519.37 1611.84 1525.32 1608.4 1530.34C1604.96 1535.36 1600.08 1539.21 1594.4 1541.39L1579.95 1547.01C1574.84 1548.97 1570.44 1552.44 1567.35 1556.96C1564.26 1561.47 1562.61 1566.82 1562.63 1572.3V1791.04C1562.64 1794.55 1564.04 1797.92 1566.53 1800.4C1569.01 1802.88 1572.38 1804.28 1575.9 1804.28H1712.36C1715.87 1804.28 1719.24 1802.88 1721.73 1800.4C1724.21 1797.92 1725.61 1794.55 1725.62 1791.04V1572.3C1725.64 1566.82 1724 1561.47 1720.91 1556.96C1717.81 1552.44 1713.42 1548.97 1708.31 1547.01Z" fill="#B5F3C5"/>
<path d="M1725.91 1488.66H1597.57V1509.8H1725.91V1488.66Z" fill="#5CD37A"/>
<path d="M1729.45 1428.52H1691.4C1692.67 1428.52 1693.93 1428.77 1695.1 1429.25C1696.27 1429.74 1697.34 1430.45 1698.24 1431.34C1699.13 1432.24 1699.85 1433.3 1700.33 1434.47C1700.82 1435.65 1701.07 1436.9 1701.07 1438.17V1479.42C1701.07 1480.69 1700.82 1481.95 1700.33 1483.12C1699.85 1484.29 1699.13 1485.36 1698.24 1486.25C1697.34 1487.15 1696.27 1487.86 1695.1 1488.34C1693.93 1488.83 1692.67 1489.08 1691.4 1489.08H1739.11V1438.17C1739.11 1436.9 1738.86 1435.65 1738.38 1434.47C1737.89 1433.3 1737.18 1432.24 1736.28 1431.34C1735.38 1430.45 1734.32 1429.74 1733.14 1429.25C1731.97 1428.77 1730.72 1428.52 1729.45 1428.52Z" fill="#5CD37A"/>
<path d="M1697.11 1428.52H1594.69C1593.42 1428.52 1592.17 1428.77 1591 1429.26C1589.82 1429.74 1588.76 1430.45 1587.86 1431.35C1586.97 1432.24 1586.25 1433.31 1585.77 1434.48C1585.28 1435.65 1585.03 1436.9 1585.03 1438.17V1489.08H1706.77V1438.17C1706.77 1436.9 1706.52 1435.65 1706.03 1434.48C1705.55 1433.31 1704.84 1432.24 1703.94 1431.35C1703.04 1430.45 1701.98 1429.74 1700.81 1429.26C1699.63 1428.77 1698.38 1428.52 1697.11 1428.52Z" fill="#6DE68B"/>
<path d="M1744.6 1475.15H1706.79V1492.52H1744.6C1745.15 1492.52 1745.7 1492.41 1746.21 1492.2C1746.73 1491.99 1747.19 1491.68 1747.58 1491.29C1747.97 1490.89 1748.29 1490.43 1748.5 1489.92C1748.71 1489.41 1748.82 1488.86 1748.82 1488.3V1479.36C1748.82 1478.81 1748.71 1478.26 1748.5 1477.75C1748.29 1477.24 1747.97 1476.77 1747.58 1476.38C1747.19 1475.99 1746.73 1475.68 1746.21 1475.47C1745.7 1475.26 1745.15 1475.15 1744.6 1475.15Z" fill="#10A836"/>
<path d="M1575.33 1479.36V1488.32C1575.34 1489.44 1575.78 1490.51 1576.57 1491.3C1577.36 1492.09 1578.43 1492.54 1579.55 1492.54H1706.73V1475.17H1579.55C1578.44 1475.17 1577.37 1475.61 1576.58 1476.39C1575.79 1477.18 1575.34 1478.25 1575.33 1479.36Z" fill="#80C892"/>
<path d="M1716.43 1460.77H1585.03V1474.71H1716.43V1460.77Z" fill="#5CD37A"/>
<path d="M1597.28 1752.28C1592.15 1752.36 1587.15 1753.95 1582.93 1756.86C1578.7 1759.78 1575.43 1763.88 1573.54 1768.64C1571.64 1773.41 1571.2 1778.63 1572.26 1783.65C1573.33 1788.67 1575.87 1793.26 1579.54 1796.84C1583.22 1800.43 1587.87 1802.84 1592.92 1803.78C1597.96 1804.71 1603.17 1804.14 1607.89 1802.12C1612.61 1800.09 1616.62 1796.72 1619.42 1792.42C1622.22 1788.12 1623.69 1783.09 1623.63 1777.96C1623.6 1774.54 1622.9 1771.15 1621.55 1768.01C1620.21 1764.86 1618.26 1762.01 1615.81 1759.62C1613.36 1757.24 1610.46 1755.36 1607.28 1754.1C1604.1 1752.84 1600.7 1752.22 1597.28 1752.28Z" fill="white"/>
<path d="M1643.8 1729.38C1638.67 1729.46 1633.68 1731.05 1629.45 1733.97C1625.23 1736.88 1621.96 1740.98 1620.06 1745.74C1618.17 1750.51 1617.72 1755.74 1618.79 1760.76C1619.86 1765.77 1622.39 1770.37 1626.07 1773.95C1629.74 1777.53 1634.4 1779.94 1639.44 1780.88C1644.49 1781.82 1649.7 1781.24 1654.42 1779.22C1659.13 1777.2 1663.15 1773.82 1665.95 1769.52C1668.75 1765.22 1670.21 1760.19 1670.16 1755.06C1670.13 1751.64 1669.42 1748.26 1668.08 1745.11C1666.74 1741.96 1664.78 1739.11 1662.33 1736.73C1659.88 1734.34 1656.98 1732.46 1653.8 1731.2C1650.62 1729.94 1647.23 1729.32 1643.8 1729.38Z" fill="white"/>
<path d="M1689.08 1752.28C1683.95 1752.36 1678.95 1753.95 1674.73 1756.86C1670.5 1759.78 1667.23 1763.88 1665.34 1768.64C1663.44 1773.41 1663 1778.63 1664.06 1783.65C1665.13 1788.67 1667.66 1793.26 1671.34 1796.84C1675.02 1800.43 1679.67 1802.84 1684.72 1803.78C1689.76 1804.71 1694.97 1804.14 1699.69 1802.11C1704.41 1800.09 1708.42 1796.72 1711.22 1792.42C1714.02 1788.12 1715.49 1783.09 1715.43 1777.96C1715.4 1774.54 1714.69 1771.16 1713.35 1768.01C1712 1764.87 1710.05 1762.02 1707.6 1759.63C1705.15 1757.24 1702.25 1755.37 1699.07 1754.1C1695.89 1752.84 1692.5 1752.22 1689.08 1752.28Z" fill="white"/>
<path d="M1734.49 1726.28C1729.35 1726.35 1724.35 1727.94 1720.11 1730.86C1715.88 1733.77 1712.6 1737.87 1710.69 1742.65C1708.79 1747.43 1708.34 1752.66 1709.41 1757.69C1710.48 1762.72 1713.02 1767.31 1716.7 1770.9C1720.38 1774.49 1725.05 1776.91 1730.1 1777.84C1735.16 1778.78 1740.38 1778.2 1745.1 1776.17C1749.82 1774.14 1753.84 1770.76 1756.64 1766.45C1759.45 1762.14 1760.91 1757.1 1760.84 1751.96C1760.81 1748.54 1760.1 1745.16 1758.75 1742.02C1757.4 1738.88 1755.45 1736.03 1753 1733.64C1750.55 1731.26 1747.66 1729.38 1744.48 1728.12C1741.31 1726.85 1737.91 1726.23 1734.49 1726.28ZM1643.8 1575.63C1638.67 1575.7 1633.68 1577.3 1629.45 1580.21C1625.23 1583.12 1621.96 1587.22 1620.06 1591.99C1618.17 1596.76 1617.72 1601.98 1618.79 1607C1619.86 1612.02 1622.39 1616.61 1626.07 1620.19C1629.74 1623.77 1634.4 1626.18 1639.44 1627.12C1644.49 1628.06 1649.7 1627.48 1654.42 1625.46C1659.13 1623.44 1663.15 1620.06 1665.95 1615.76C1668.75 1611.47 1670.21 1606.43 1670.16 1601.3C1670.13 1597.88 1669.42 1594.5 1668.08 1591.35C1666.74 1588.2 1664.78 1585.35 1662.33 1582.97C1659.88 1580.58 1656.98 1578.7 1653.8 1577.44C1650.62 1576.18 1647.23 1575.56 1643.8 1575.63Z" fill="white"/>
<path d="M1674.78 1542.17C1669.65 1542.25 1664.66 1543.84 1660.43 1546.75C1656.21 1549.67 1652.94 1553.76 1651.05 1558.53C1649.15 1563.3 1648.71 1568.52 1649.78 1573.54C1650.85 1578.55 1653.38 1583.14 1657.05 1586.72C1660.73 1590.3 1665.38 1592.71 1670.43 1593.65C1675.47 1594.59 1680.68 1594.01 1685.39 1591.99C1690.11 1589.97 1694.12 1586.6 1696.92 1582.3C1699.72 1578 1701.19 1572.97 1701.13 1567.84C1701.1 1564.42 1700.39 1561.04 1699.05 1557.89C1697.71 1554.74 1695.75 1551.9 1693.3 1549.51C1690.85 1547.12 1687.96 1545.24 1684.78 1543.98C1681.6 1542.72 1678.2 1542.11 1674.78 1542.17Z" fill="white"/>
<path d="M1720.55 1565.17C1715.41 1565.24 1710.4 1566.83 1706.17 1569.75C1701.93 1572.66 1698.66 1576.76 1696.75 1581.54C1694.85 1586.32 1694.4 1591.55 1695.47 1596.58C1696.54 1601.61 1699.08 1606.2 1702.76 1609.79C1706.44 1613.38 1711.1 1615.8 1716.16 1616.73C1721.21 1617.67 1726.43 1617.09 1731.16 1615.06C1735.88 1613.03 1739.9 1609.65 1742.7 1605.34C1745.5 1601.03 1746.96 1595.99 1746.9 1590.85C1746.87 1587.43 1746.17 1584.04 1744.83 1580.9C1743.48 1577.75 1741.53 1574.9 1739.08 1572.51C1736.63 1570.13 1733.73 1568.25 1730.55 1566.99C1727.37 1565.73 1723.97 1565.11 1720.55 1565.17ZM1601.28 1700.29C1596.15 1700.37 1591.16 1701.96 1586.94 1704.87C1582.71 1707.78 1579.45 1711.88 1577.55 1716.65C1575.65 1721.42 1575.21 1726.64 1576.28 1731.66C1577.35 1736.67 1579.88 1741.26 1583.56 1744.84C1587.23 1748.42 1591.89 1750.83 1596.93 1751.77C1601.97 1752.71 1607.18 1752.13 1611.9 1750.11C1616.61 1748.09 1620.63 1744.72 1623.43 1740.42C1626.23 1736.12 1627.69 1731.09 1627.63 1725.96C1627.6 1722.54 1626.9 1719.15 1625.55 1716.01C1624.21 1712.86 1622.26 1710.01 1619.81 1707.63C1617.36 1705.24 1614.46 1703.36 1611.28 1702.1C1608.1 1700.84 1604.7 1700.23 1601.28 1700.29ZM1700.32 1701.94C1695.17 1702.01 1690.17 1703.6 1685.93 1706.51C1681.7 1709.43 1678.42 1713.53 1676.52 1718.31C1674.61 1723.08 1674.17 1728.31 1675.24 1733.34C1676.31 1738.37 1678.84 1742.97 1682.52 1746.56C1686.21 1750.15 1690.87 1752.56 1695.92 1753.5C1700.98 1754.44 1706.2 1753.86 1710.92 1751.83C1715.65 1749.8 1719.66 1746.42 1722.47 1742.11C1725.27 1737.8 1726.73 1732.75 1726.67 1727.61C1726.64 1724.19 1725.93 1720.81 1724.59 1717.66C1723.25 1714.52 1721.3 1711.67 1718.85 1709.28C1716.39 1706.89 1713.5 1705.02 1710.32 1703.76C1707.13 1702.49 1703.74 1701.88 1700.32 1701.94Z" fill="white"/>
<path d="M1726.98 1597.7H1546.56V1737.4H1726.98V1597.7Z" fill="#6AE588"/>
<path d="M1776.92 1597.7H1726.98V1737.4H1776.92V1597.7Z" fill="#40BC5F"/>
<path d="M1584.64 1597.7V1695C1584.72 1698.38 1586.11 1701.6 1588.53 1703.97C1590.95 1706.33 1594.2 1707.66 1597.59 1707.66C1600.97 1707.66 1604.22 1706.33 1606.64 1703.97C1609.06 1701.6 1610.46 1698.38 1610.53 1695V1597.7H1584.64Z" fill="#AFF5C0"/>
<path d="M1597.58 1564.15C1594.15 1564.17 1590.87 1565.53 1588.45 1567.95C1586.02 1570.37 1584.65 1573.65 1584.63 1577.07V1597.7H1610.52V1577.07C1610.5 1573.65 1609.13 1570.37 1606.7 1567.95C1604.28 1565.53 1601 1564.17 1597.58 1564.15Z" fill="white"/>
<path d="M1700.89 1661.06H1622.6C1621.38 1661.06 1620.22 1661.54 1619.37 1662.4C1618.51 1663.25 1618.03 1664.41 1618.03 1665.63C1618.03 1666.84 1618.51 1668 1619.37 1668.85C1620.22 1669.71 1621.38 1670.19 1622.6 1670.19H1700.89C1702.11 1670.19 1703.27 1669.71 1704.12 1668.85C1704.98 1668 1705.46 1666.84 1705.46 1665.63C1705.46 1664.41 1704.98 1663.25 1704.12 1662.4C1703.27 1661.54 1702.11 1661.06 1700.89 1661.06ZM1700.89 1627.62H1622.6C1621.39 1627.62 1620.23 1628.1 1619.38 1628.95C1618.52 1629.8 1618.05 1630.96 1618.05 1632.17C1618.05 1633.37 1618.52 1634.53 1619.38 1635.38C1620.23 1636.24 1621.39 1636.72 1622.6 1636.72H1700.89C1702.1 1636.72 1703.26 1636.24 1704.11 1635.38C1704.96 1634.53 1705.44 1633.37 1705.44 1632.17C1705.44 1630.96 1704.96 1629.8 1704.11 1628.95C1703.26 1628.1 1702.1 1627.62 1700.89 1627.62ZM1700.89 1694.5H1622.6C1621.38 1694.5 1620.22 1694.98 1619.37 1695.84C1618.51 1696.7 1618.03 1697.86 1618.03 1699.07C1618.03 1700.28 1618.51 1701.44 1619.37 1702.3C1620.22 1703.15 1621.38 1703.63 1622.6 1703.63H1700.89C1702.11 1703.63 1703.27 1703.15 1704.12 1702.3C1704.98 1701.44 1705.46 1700.28 1705.46 1699.07C1705.46 1697.86 1704.98 1696.7 1704.12 1695.84C1703.27 1694.98 1702.11 1694.5 1700.89 1694.5Z" fill="#50C96E"/>
<path d="M1648.46 644.753C1646.85 637.187 1643.41 630.128 1638.46 624.185C1633.5 618.242 1627.18 613.593 1620.03 610.638C1612.88 607.682 1605.11 606.51 1597.41 607.222C1589.71 607.933 1582.29 610.508 1575.8 614.723L1478.51 677.831C1473.17 681.205 1468.56 685.606 1464.93 690.777C1461.31 695.949 1458.75 701.789 1457.4 707.958C1456.05 714.128 1455.94 720.503 1457.08 726.715C1458.21 732.927 1460.57 738.852 1464.01 744.146C1467.46 749.439 1471.92 753.997 1477.13 757.553C1482.35 761.109 1488.22 763.594 1494.41 764.862C1500.6 766.131 1506.97 766.158 1513.17 764.942C1519.37 763.727 1525.26 761.293 1530.51 757.781L1627.79 694.666C1635.49 689.682 1641.58 682.581 1645.34 674.217C1649.1 665.852 1650.36 656.58 1648.98 647.515C1648.84 646.618 1648.67 645.689 1648.46 644.753Z" fill="#BAE1D7"/>
<path d="M1478.52 677.856C1473.18 681.23 1468.56 685.63 1464.94 690.802C1461.32 695.974 1458.76 701.814 1457.41 707.983C1456.06 714.152 1455.95 720.528 1457.08 726.74C1458.22 732.952 1460.58 738.877 1464.02 744.17C1467.46 749.464 1471.92 754.021 1477.14 757.577C1482.36 761.134 1488.23 763.618 1494.42 764.887C1500.6 766.155 1506.98 766.182 1513.18 764.967C1519.37 763.751 1525.27 761.317 1530.52 757.806L1579.16 726.255L1527.16 646.305L1478.52 677.856Z" fill="#ED6561"/>
<path d="M1627.79 680.373L1530.51 743.488C1519.89 750.374 1506.98 752.765 1494.6 750.137C1482.22 747.508 1471.39 740.074 1464.48 729.468C1460.78 723.787 1458.34 717.376 1457.33 710.67C1455.96 719.764 1457.24 729.062 1461.03 737.444C1464.82 745.826 1470.95 752.934 1478.68 757.914C1486.41 762.894 1495.42 765.532 1504.62 765.512C1513.82 765.492 1522.81 762.815 1530.52 757.801L1627.8 694.686C1635.5 689.702 1641.59 682.601 1645.35 674.237C1649.11 665.872 1650.38 656.6 1648.99 647.535C1647.99 654.199 1645.58 660.572 1641.92 666.234C1638.27 671.895 1633.45 676.715 1627.79 680.373Z" fill="#D34F5F"/>
<path d="M1626.13 693.924L1612.07 730.019L1626.07 681.418L1624.66 681.776C1621.3 682.603 1618.21 684.269 1615.67 686.617C1613.13 688.966 1611.22 691.92 1610.13 695.205L1598.84 730.019L1610.02 685.468L1607.74 686.04C1604.47 686.845 1601.46 688.5 1599.03 690.839C1596.6 693.177 1594.83 696.116 1593.9 699.358L1585.62 728.823L1592.12 690.213C1586.74 692.058 1581.94 695.287 1578.2 699.576C1574.46 703.865 1571.92 709.063 1570.82 714.646L1567.25 733.587L1546.5 739.931C1525.17 746.431 1508.63 763 1502.49 783.969L1495.96 804.197L1544.19 825.835L1553.29 785.535L1608.73 759.958C1612.07 758.431 1614.7 755.701 1616.11 752.314L1647.57 675.965L1646.27 676.296C1641.75 677.414 1637.56 679.598 1634.06 682.665C1630.56 685.732 1627.84 689.592 1626.13 693.924Z" fill="#FBC9AD"/>
<path opacity="0.5" d="M1578.28 630.577L1536.55 656.395L1495 682.167C1472.46 696.181 1477.72 702.967 1477.72 702.967C1477.72 702.967 1479.97 711.645 1503.39 697.078L1546.19 671.494L1586.43 645.449C1609.83 630.889 1603.67 624.649 1603.67 624.649C1603.67 624.649 1600.82 616.563 1578.28 630.577Z" fill="white"/>
<path d="M1831.24 789.492C1831.24 789.492 1879.77 842.922 1895.1 852.289L1903.62 830.572C1903.62 830.572 1845.29 804.819 1831.24 789.492Z" fill="#F5917E"/>
<path d="M2097.55 640.723L1966.83 781.194C1966.83 781.194 1928.95 784.171 1940.02 826.746C1951.09 869.321 1974.06 899.8 2000.9 902.101C2030.69 904.655 2097.96 883.368 2116.69 852.701C2135.43 822.034 2173.74 759.042 2173.74 759.042L2167.78 702.843L2097.55 640.723Z" fill="#A71B27"/>
<path d="M2068.57 707.291C2067.22 709.325 2065.78 711.49 2064.28 713.791C2048.54 737.704 2018.84 771.829 1996.15 811.291C1969.27 858.026 1985.96 882.212 2017.52 880.769C2048.8 879.333 2101.31 817.206 2132.25 772.928C2140.42 761.228 2147.09 751.205 2151.5 744.451C2155.22 738.731 2157.35 735.351 2157.35 735.351L2081.53 688.031C2081.53 688.031 2076.57 695.214 2068.57 707.291Z" fill="#F5917E"/>
<path d="M2032.31 515.778C2027.11 512.912 2015.49 525.827 2015.49 525.827L1999.4 560.277C1999.4 560.277 2020.59 544.963 2024.19 536.91C2027.79 528.856 2037.52 518.651 2032.31 515.778Z" fill="#CF612D"/>
<path d="M2024.19 560.559C2027.79 553.058 2037.52 543.522 2032.31 540.851C2029.97 539.655 2026.34 541.429 2023.04 543.743C2024.47 540.526 2025.89 537.172 2027.29 533.746C2032.24 521.656 2031.12 514.318 2030.84 504.197C2030.56 494.077 2022.79 478.964 2017.84 484.203C2013.03 489.319 2020.38 502.143 2017.19 513.115C2014 524.087 2010.57 530.223 2010.57 530.223C2011.49 521.734 2013.17 513.863 2006.09 497.645C1999.01 481.428 1988.3 479.289 1987.7 484.333C1987.1 489.377 1987.37 494.168 1992.75 505.66C1998.13 517.152 1994.7 531.77 1994.7 531.77C1994.86 524.191 1988 498.549 1979.22 492.868C1970.45 487.187 1966.59 494.707 1970.85 503.06C1975.12 511.412 1976.11 534.877 1976.11 534.877C1976.11 534.877 1972.21 522.443 1967.81 514.142C1967.12 512.842 1960.19 503.274 1957.57 513.7C1955.8 520.766 1960.74 536.892 1961.47 550.698C1961.76 556.451 1959.97 563.438 1957.77 569.639C1956.69 572.694 1956.26 575.946 1956.53 579.178C1956.79 582.41 1957.74 585.549 1959.31 588.385C1953.46 623.446 1926.25 795.313 1945.57 836.562C1971.85 892.65 2017.53 880.827 2017.53 880.827L2030.92 792.089C2014.83 740.505 2007.34 634.074 2000.91 584.934C2003.22 582.275 1998.49 584.492 2000.6 581.508C2005.06 578.414 2021.1 567.007 2024.19 560.559Z" fill="#F5917E"/>
<path d="M2104.64 649.824C2104.21 650.175 2061.25 685.775 2033.18 741.578C2033.06 741.81 2033.01 742.07 2033.03 742.33C2033.05 742.59 2033.14 742.84 2033.28 743.053C2033.42 743.25 2033.61 743.41 2033.82 743.521C2034.17 743.693 2034.57 743.721 2034.93 743.599C2035.3 743.477 2035.6 743.216 2035.77 742.871C2063.57 687.621 2106.05 652.404 2106.48 652.06C2106.63 651.939 2106.75 651.79 2106.84 651.622C2106.93 651.454 2106.99 651.271 2107 651.081C2107.02 650.891 2107 650.7 2106.95 650.518C2106.89 650.336 2106.8 650.166 2106.68 650.019C2106.56 649.871 2106.41 649.749 2106.25 649.66C2106.08 649.57 2105.89 649.514 2105.7 649.495C2105.51 649.477 2105.32 649.495 2105.14 649.551C2104.96 649.606 2104.79 649.696 2104.64 649.817V649.824Z" fill="#2B2C20"/>
<path d="M2095.19 644.519C2094.85 644.341 2094.46 644.303 2094.09 644.414C2093.73 644.525 2093.42 644.775 2093.24 645.11C2093 645.552 2087.35 656.16 2086.7 667.639C2086.67 668.024 2086.81 668.401 2087.06 668.688C2087.32 668.975 2087.68 669.148 2088.06 669.17C2088.45 669.192 2088.83 669.059 2089.11 668.803C2089.4 668.546 2089.57 668.186 2089.59 667.802C2090.21 657.012 2095.74 646.579 2095.8 646.475C2095.89 646.307 2095.94 646.123 2095.96 645.934C2095.98 645.744 2095.96 645.552 2095.9 645.37C2095.85 645.188 2095.75 645.019 2095.63 644.873C2095.51 644.727 2095.36 644.606 2095.19 644.519Z" fill="#2B2C20"/>
<path d="M2039.99 747.395C2039.99 747.395 2067.86 800.87 2104.23 811.036L2120.33 789.69C2120.33 789.69 2055.38 771.497 2039.99 747.395Z" fill="#F47F78"/>
<path d="M2148.9 598.045C2148.9 598.045 2118.68 582.815 2072.54 661.355C2026.4 739.894 2029.3 736.43 2029.3 736.43L2034.76 743.17C2034.76 743.17 2055.29 775.761 2125.24 790.62C2125.25 790.614 2227.89 670.429 2148.9 598.045ZM1824.83 784.536C1845.99 811.225 1907.88 832.565 1907.88 832.565L1912.51 623.759C1867.65 634.328 1824.83 784.536 1824.83 784.536Z" fill="#921B20"/>
</g>
<defs>
<clipPath id="clip0_351_13964">
<rect width="3042" height="2028" fill="white" transform="translate(0 0.476562)"/>
</clipPath>
</defs>
</svg>
